<?xml version="1.0" encoding="UTF-8" standalone="no"?>
<svg xmlns:dc="http://purl.org/dc/elements/1.1/"
     xmlns:cc="http://creativecommons.org/ns#"
     xmlns:rdf="http://www.w3.org/1999/02/22-rdf-syntax-ns#"
     xmlns:svg="http://www.w3.org/2000/svg"
     xmlns="http://www.w3.org/2000/svg"
     version="1.0"
     width="16" height="16" viewBox="0 0 24 24"
     id="svg2">
    <defs id="defs22" />
    <metadata id="metadata10">
        <rdf:RDF>
            <cc:Work rdf:about="">
                <dc:format>image/svg+xml</dc:format>
                <dc:type rdf:resource="http://purl.org/dc/dcmitype/StillImage" />
                <cc:license rdf:resource="http://web.resource.org/cc/PublicDomain" />
                <dc:language>en</dc:language>
                <dc:title></dc:title>
            </cc:Work>
        </rdf:RDF>
    </metadata>
    <g id="g2319"
       transform="translate(879.29125,-519.19488)">
        <path id="path2323"
              style="fill:#ffffff;stroke:none"
              d="" />
    </g>
    <g id="g2325"
       transform="translate(879.29125,-519.19488)">
        <path id="path2329"
              style="fill:#ffffff;stroke:none"
              d="" />
    </g>
    <ellipse transform="scale(-1,1)"
             style="font-size:12px;fill:none;fill-opacity:1;fill-rule:evenodd;stroke:#000000;stroke-width:1.19715977;stroke-opacity:1"
             id="path596"
             cx="-4.2263021"
             cy="14.811037"
             rx="3.6277225"
             ry="3.5903831" />
    <ellipse transform="scale(-1,1)"
             style="font-size:12px;fill:none;fill-opacity:1;fill-rule:evenodd;stroke:#000000;stroke-width:1.19715977;stroke-opacity:1"
             id="path595"
             cx="-19.773697"
             cy="14.741094"
             rx="3.6277225"
             ry="3.5903831" />
    <path style="font-size:12px;fill:none;fill-opacity:1;fill-rule:evenodd;stroke:#000000;stroke-width:0.9611811;stroke-linejoin:round;stroke-opacity:1"
          id="path594"
          d="m 16.899784,8.6327798 -9.328431,0.04663 -3.297929,6.0616872 6.31318,0 6.595859,-4.429694" />
    <path style="font-size:12px;fill:#000000;fill-opacity:1;fill-rule:evenodd;stroke-width:25;stroke-linecap:round"
          id="path593"
          d="m 16.541327,5.000015 c 0.506704,0 0.889705,-0.011204 1.282278,0.582373 0.113003,0.1978689 0.164665,0.4394637 0.122938,0.6799499 -0.05007,0.2734548 -0.213633,0.5421223 -0.406473,0.7011674 -0.255354,0.210604 -0.497691,0.1943597 -0.458525,0.3836824 0.05023,0.2429201 0.203615,0.5804932 0.369345,1.1286433 0.168231,0.5564058 0.367994,1.2373975 0.564079,1.908148 0.196085,0.670753 0.38857,1.331624 0.540936,1.846596 0.07618,0.257485 0.14272,0.478578 0.193814,0.644162 0.0498,0.161324 0.09373,0.286637 0.08968,0.277704 0.158744,0.276423 0.180351,0.456536 0.446614,0.691808 0.298537,0.258591 0.541602,0.449621 0.62596,0.507976 0.214265,0.154043 0.313876,0.479145 0.200728,0.639777 -0.142595,0.218916 -0.437087,0.252498 -0.652321,0.187001 -0.204371,-0.0642 -0.527886,-0.174495 -0.903022,-0.482008 l -0.0029,-0.0044 -0.0044,-0.0028 c -0.521976,-0.443063 -0.715088,-0.98087 -0.734739,-1.011989 l -0.02748,-0.04152 -0.01881,-0.04582 c -0.04531,-0.110262 -0.0724,-0.207435 -0.125894,-0.38085 C 17.589655,13.036229 17.521811,12.812193 17.445002,12.5526 17.291398,12.033415 17.099887,11.371538 16.904075,10.701714 16.708339,10.032091 16.509064,9.3545668 16.34297,8.8052165 16.176875,8.2558758 16.07194,7.8046976 16.03315,7.7087196 15.93874,7.4751201 15.890504,7.2229266 15.95505,6.9700806 16.01958,6.7172382 16.21246,6.5131689 16.385588,6.4657311 16.780769,6.3563103 16.675915,6.0749863 16.473728,6.0745772 l -1.694251,-0.0034 -0.0042,-1.0709654 c 1.1e-5,-2.36e-5 1.099731,-2.36e-5 1.766014,-2.36e-5 z" />
    <path style="font-size:12px;fill:#ffffff;fill-opacity:1;fill-rule:evenodd;stroke:#000000;stroke-width:1.15111518;stroke-opacity:1"
          id="path599"
          d="M 10.465727,14.551304 7.2675701,6.803064" />
    <path style="font-size:12px;fill:#ffffff;fill-opacity:1;fill-rule:evenodd;stroke:#000000;stroke-width:0.42015705;stroke-linecap:round;stroke-opacity:1"
          id="path600"
          d="M 11.56515,12.572938 9.6328139,17.024234" />
    <ellipse transform="scale(-1,1)"
             style="font-size:12px;fill:#000000;fill-opacity:1;fill-rule:evenodd;stroke:#000000;stroke-width:0.3819544;stroke-opacity:1"
             id="path597"
             cx="-10.551274"
             cy="14.752715"
             rx="1.0228537"
             ry="0.89412743" />
    <path style="font-size:12px;fill:#ffffff;fill-opacity:1;fill-rule:evenodd;stroke:#000000;stroke-width:0.58709109;stroke-linecap:round;stroke-miterlimit:4;stroke-dasharray:none;stroke-opacity:1"
          id="path601"
          d="m 12.425401,12.57497 -1.70693,0.01548" />
    <path style="font-size:12px;fill:#ffffff;fill-opacity:1;fill-rule:evenodd;stroke:#000000;stroke-width:0.58706868;stroke-linecap:round;stroke-opacity:1"
          id="path602"
          d="m 10.502965,16.960292 -1.7069336,0.01548" />
    <path style="font-size:12px;fill:#000000;fill-opacity:1;fill-rule:evenodd;stroke:none;stroke-width:0.55582194pt;stroke-opacity:1"
          id="path603"
          d="m 5.7017905,6.1106425 4.014354,0 c 0.149914,0 0.3434075,0.2624571 0.149914,0.4368708 -0.2092705,0.1971186 -2.0904624,0.601724 -2.0904624,0.601724 0,0 -0.5163684,0.1401268 -0.7912116,0.1071576 C 6.7095431,7.223434 5.7600904,7.140996 5.7017905,6.1106427 Z" />
</svg>
