<?xml version="1.0" standalone="no"?>
<!DOCTYPE svg PUBLIC "-//W3C//DTD SVG 20010904//EN"
 "http://www.w3.org/TR/2001/REC-SVG-20010904/DTD/svg10.dtd">
<svg version="1.0" xmlns="http://www.w3.org/2000/svg"
 width="700.000000pt" height="700.000000pt" viewBox="0 0 700.000000 700.000000"
 preserveAspectRatio="xMidYMid meet">
<metadata>
Created by potrace 1.14, written by Peter Selinger 2001-2017
</metadata>
<g transform="translate(0.000000,700.000000) scale(0.100000,-0.100000)"
fill="#000000" stroke="none">
<path d="M3360 6623 c-1 -10 -45 -350 -98 -756 -54 -406 -95 -740 -92 -741 3
-2 46 3 95 11 130 20 427 12 558 -16 158 -34 253 -68 402 -142 176 -86 300
-175 435 -309 135 -136 222 -258 315 -445 l75 -150 322 -42 c177 -23 324 -41
325 -39 8 7 -70 255 -112 359 -210 514 -600 931 -1099 1177 -143 70 -360 148
-473 170 l-63 13 -287 463 c-159 255 -291 463 -295 464 -5 0 -8 -8 -8 -17z"/>
<path d="M2910 5685 c-303 -84 -606 -239 -843 -433 -171 -140 -344 -333 -467
-522 -126 -195 -263 -515 -300 -707 l-12 -61 -464 -289 c-255 -158 -463 -291
-464 -295 0 -5 8 -8 18 -8 9 -1 350 -45 757 -99 407 -54 741 -97 742 -96 2 1
-4 49 -13 106 -22 140 -14 413 16 551 109 512 431 929 890 1150 69 33 132 63
140 67 11 6 25 84 57 322 23 173 42 320 42 327 1 15 3 15 -99 -13z"/>
<path d="M3072 3538 c-330 -650 -450 -893 -440 -899 7 -4 17 -4 23 0 5 5 195
140 420 301 226 161 415 296 420 301 7 5 177 -120 430 -316 231 -179 425 -323
430 -322 6 2 10 8 10 14 0 15 -828 1813 -834 1813 -4 0 -210 -401 -459 -892z"/>
<path d="M5118 3834 c-3 -3 -2 -22 3 -42 19 -87 28 -289 18 -412 -49 -603
-395 -1104 -944 -1366 -66 -31 -122 -58 -124 -60 -3 -3 -90 -648 -87 -651 1
-2 42 8 92 21 285 77 539 201 783 384 395 296 697 745 819 1220 15 59 31 112
35 118 3 6 214 141 468 300 254 158 458 289 453 291 -5 1 -337 45 -739 98
-401 52 -739 97 -751 100 -12 3 -23 2 -26 -1z"/>
<path d="M1296 3013 c-6 -6 37 -162 74 -268 49 -139 160 -358 248 -491 261
-390 628 -685 1061 -853 85 -33 206 -71 326 -101 40 -10 43 -14 325 -470 157
-253 288 -460 291 -460 4 0 14 60 24 133 9 72 54 411 99 752 46 341 81 623 80
626 -2 3 -38 -1 -81 -9 -98 -17 -360 -19 -473 -3 -578 84 -1059 451 -1290 983
-30 69 -37 78 -64 83 -17 3 -152 21 -301 40 -148 19 -280 36 -292 38 -13 2
-24 2 -27 0z"/>
</g>
</svg>
