<?xml version="1.0" standalone="no"?>
<!DOCTYPE svg PUBLIC "-//W3C//DTD SVG 20010904//EN"
 "http://www.w3.org/TR/2001/REC-SVG-20010904/DTD/svg10.dtd">
<svg version="1.0" xmlns="http://www.w3.org/2000/svg"
 width="400.000000pt" height="400.000000pt" viewBox="0 0 400.000000 400.000000"
 preserveAspectRatio="xMidYMid meet">
<metadata>
Created by potrace 1.11, written by Peter Selinger 2001-2013
</metadata>
<g transform="translate(0.000000,400.000000) scale(0.100000,-0.100000)"
fill="#000000" stroke="none">
<path d="M168 3963 c6 -2 18 -2 25 0 6 3 1 5 -13 5 -14 0 -19 -2 -12 -5z"/>
<path d="M233 3963 c9 -2 25 -2 35 0 9 3 1 5 -18 5 -19 0 -27 -2 -17 -5z"/>
<path d="M1819 3949 c11 -12 21 -26 21 -29 0 -4 -26 -23 -59 -43 -101 -63
-149 -130 -205 -284 -37 -106 -63 -151 -94 -167 -15 -7 -99 -26 -187 -41 -88
-14 -184 -33 -214 -40 -53 -14 -55 -13 -163 25 -61 21 -112 41 -115 44 -3 2
21 91 52 196 42 141 54 195 46 203 -7 7 -14 7 -20 1 -15 -16 -131 -418 -124
-425 5 -4 49 -21 98 -38 50 -17 96 -34 104 -37 9 -3 -2 -15 -31 -33 -35 -23
-53 -44 -77 -93 -17 -34 -33 -74 -35 -88 -3 -14 -15 -70 -27 -125 -19 -83 -23
-132 -23 -286 l-1 -185 42 -85 c23 -46 63 -111 88 -144 25 -33 45 -63 45 -66
0 -4 -35 -38 -78 -77 l-78 -70 -24 45 c-33 62 -103 138 -157 170 -38 22 -62
27 -166 34 -67 5 -138 13 -157 19 -45 13 -60 13 -60 -2 0 -6 3 -9 6 -6 3 4 22
-1 42 -9 21 -9 88 -18 162 -22 142 -8 168 -18 235 -87 69 -73 155 -258 140
-304 -11 -35 -101 -57 -319 -80 -55 -6 -102 -7 -106 -3 -4 5 -12 33 -18 63
-18 80 -94 341 -99 336 -3 -2 5 -37 17 -77 15 -50 19 -74 11 -77 -23 -8 -10
-110 34 -272 25 -91 49 -183 52 -205 l7 -40 8 30 c5 22 6 17 4 -20 -2 -27 -6
-59 -10 -70 -3 -11 0 -6 8 10 8 17 15 54 16 83 0 28 1 52 3 52 1 0 40 -7 87
-15 47 -8 117 -15 156 -15 80 0 237 36 302 69 45 23 62 26 62 12 0 -5 -51 -34
-112 -65 -82 -39 -141 -60 -213 -75 -105 -22 -241 -64 -287 -87 -22 -12 -28
-12 -29 -2 0 7 -4 4 -9 -7 -13 -31 -12 -38 5 -22 22 23 156 65 295 93 124 25
265 81 339 134 47 33 45 6 -3 -38 -56 -52 -122 -85 -252 -128 -150 -49 -179
-66 -274 -164 -47 -47 -103 -100 -125 -116 -22 -16 -43 -33 -47 -39 -4 -6 -8
-1 -9 10 0 12 -4 7 -10 -14 -6 -18 -8 -36 -5 -39 3 -3 6 1 6 9 0 8 18 22 39
32 22 10 87 63 146 118 116 109 171 142 307 178 166 45 220 70 271 125 l29 30
17 -22 16 -23 113 53 c109 51 112 51 132 33 l20 -18 -26 -28 c-15 -16 -32 -26
-37 -22 -6 3 -7 2 -4 -4 8 -12 -56 -76 -79 -79 -20 -3 -37 -18 -224 -200 -80
-77 -201 -194 -270 -260 -69 -65 -128 -122 -131 -127 -3 -4 -54 -7 -115 -6
-114 0 -194 -12 -232 -37 -26 -17 -26 -21 -7 86 16 92 18 106 10 98 -7 -7 -55
-316 -55 -355 0 -18 4 -33 10 -33 5 0 7 -6 4 -14 -10 -25 51 -63 122 -76 92
-18 108 -35 100 -111 -12 -105 44 -192 158 -245 110 -51 211 -25 374 98 126
94 135 99 260 144 112 41 501 159 552 168 49 9 117 -5 405 -84 292 -79 377
-95 458 -86 86 9 488 91 592 121 98 29 148 55 171 90 8 12 26 76 40 141 34
165 67 270 125 401 32 73 51 132 55 170 6 59 -8 119 -25 108 -6 -3 -3 15 6 40
8 25 13 48 11 50 -2 3 -22 -47 -44 -110 -21 -63 -43 -114 -48 -112 -5 2 -23
27 -39 56 -29 50 -29 53 -11 66 11 7 28 21 39 29 19 15 19 16 -8 6 -47 -17
-49 -12 -10 23 111 95 110 94 82 232 l-23 112 -50 -38 c-41 -31 -211 -117
-181 -91 6 4 36 28 68 52 123 92 264 276 326 424 66 159 75 210 75 431 0 190
-1 205 -27 290 -98 319 -305 562 -600 700 -144 67 -233 87 -429 92 -93 3 -168
9 -168 14 0 5 -23 0 -50 -11 -28 -11 -91 -29 -140 -39 -109 -24 -184 -59 -247
-114 -26 -23 -65 -55 -85 -70 l-37 -27 -11 39 c-24 92 65 220 212 305 43 24
61 51 27 41 -15 -5 -19 -4 -15 4 7 11 -17 16 -57 13 -11 -1 -15 2 -11 9 4 6
-1 9 -12 8 -11 -2 -25 0 -33 5 -10 7 -12 5 -6 -5 6 -11 5 -11 -5 -2 -7 6 -19
9 -28 6 -10 -5 -13 -2 -8 6 6 9 1 12 -15 10 -13 -2 -29 0 -36 4 -6 4 -37 10
-70 13 -32 3 -80 8 -107 11 l-49 5 22 -23z m58 5 c-3 -3 -12 -4 -19 -1 -8 3
-5 6 6 6 11 1 17 -2 13 -5z m-9 -122 c14 -50 14 -54 -5 -75 -69 -75 -75 -188
-17 -317 l27 -60 -29 -22 c-15 -13 -37 -26 -48 -29 -12 -3 -20 -10 -19 -16 1
-6 -30 11 -70 37 -93 61 -112 67 -127 40 -10 -19 -7 -27 32 -63 24 -23 69 -55
101 -72 31 -16 57 -37 57 -45 0 -25 -54 -120 -68 -120 -7 0 -34 18 -60 39 -64
54 -109 71 -188 71 -69 0 -267 -42 -316 -66 l-27 -14 -11 58 c-6 31 -16 74
-21 96 -6 21 -7 42 -2 46 9 9 120 33 253 55 192 32 213 48 261 193 36 108 60
162 97 209 26 35 141 115 156 110 5 -2 16 -27 24 -55z m56 -262 l24 -135 -22
-23 -21 -23 -17 21 c-31 39 -60 132 -60 197 0 50 5 71 28 110 l28 48 8 -30 c5
-17 19 -91 32 -165z m439 63 c-24 -12 -34 -27 -44 -60 -6 -25 -18 -47 -25 -50
-8 -3 -12 -9 -9 -13 3 -5 -14 -29 -38 -54 -34 -35 -52 -46 -83 -49 -21 -3 4
-3 56 -1 341 13 576 15 735 5 99 -6 258 -15 353 -21 l173 -11 30 -32 c54 -58
140 -196 175 -278 54 -127 76 -228 81 -369 10 -259 -59 -476 -216 -673 l-58
-73 -294 -19 c-347 -22 -630 -22 -938 -1 -124 9 -235 16 -247 16 -26 0 -108
95 -164 192 -19 32 -39 54 -46 51 -7 -3 -23 24 -42 74 -113 292 -105 570 23
842 74 156 184 293 227 285 18 -3 19 -3 5 4 -15 6 -13 12 20 43 78 74 223 165
323 202 31 12 34 5 3 -10z m-682 -295 c34 -24 69 -54 78 -67 15 -23 14 -23 -9
-17 -35 10 -130 77 -148 104 -24 36 7 28 79 -20z m-655 -46 c6 -4 20 -50 30
-101 l20 -95 -32 -47 c-17 -26 -44 -81 -59 -121 -15 -40 -41 -102 -57 -138
-25 -53 -30 -78 -30 -135 0 -38 5 -90 10 -114 10 -43 10 -45 -30 -93 -23 -27
-45 -45 -50 -40 -4 4 -18 35 -29 68 -27 77 -35 210 -20 349 17 154 37 237 81
332 33 71 45 87 86 113 50 31 62 35 80 22z m539 -128 c48 -22 117 -94 105
-109 -5 -6 -7 -15 -3 -19 4 -4 -5 -2 -20 3 -69 27 -132 5 -211 -73 -77 -76
-255 -310 -272 -357 -26 -75 -35 -249 -22 -452 9 -148 8 -200 -2 -245 -17 -81
-29 -97 -30 -42 -1 80 -20 183 -49 265 -16 44 -49 136 -74 205 l-45 125 124
131 c68 73 124 138 124 145 0 8 -16 84 -35 169 -19 85 -35 165 -35 177 0 19
12 26 88 49 176 54 285 62 357 28z m-447 -246 c18 -84 32 -160 32 -168 -1 -8
-49 -67 -109 -130 l-108 -114 -12 52 c-17 80 -13 151 10 202 12 25 34 80 50
122 41 112 81 188 98 188 4 0 21 -69 39 -152z m518 98 c23 -17 21 -18 -81 -41
-38 -9 -86 -25 -105 -36 l-35 -21 25 27 c65 71 152 103 196 71z m-272 -208
c-37 -88 -60 -119 -115 -150 -19 -11 -43 -32 -52 -46 -9 -15 -17 -22 -17 -17
0 6 10 27 23 47 23 39 185 248 191 248 3 0 -11 -37 -30 -82z m187 -265 c-3
-56 21 -261 40 -334 5 -20 9 -72 9 -115 0 -61 -5 -86 -20 -111 -19 -32 -22
-33 -84 -33 -36 0 -76 4 -91 10 -63 24 -73 163 -25 355 39 153 78 238 122 265
49 30 53 26 49 -37z m-586 -200 c18 -54 32 -99 31 -100 0 -1 -29 31 -62 71
l-61 71 25 33 c14 18 27 30 29 28 3 -3 20 -49 38 -103z m249 27 c33 -17 77 -5
125 36 22 20 41 33 41 30 0 -2 -7 -33 -15 -68 -8 -35 -23 -141 -33 -235 -17
-151 -22 -177 -47 -219 -28 -48 -204 -238 -212 -230 -3 2 12 38 32 79 57 120
65 178 54 395 -5 103 -6 211 -3 241 l7 55 14 -36 c8 -19 24 -41 37 -48z m-139
-336 c8 -38 14 -109 13 -159 l-1 -90 -7 111 c-9 133 -31 216 -70 265 -22 28
-26 39 -17 48 16 17 62 -82 82 -175z m-76 115 c39 -50 53 -106 59 -235 4 -117
4 -122 -19 -142 l-23 -22 -30 37 c-122 147 -166 207 -166 226 0 13 27 49 72
94 40 40 75 73 78 72 3 0 16 -14 29 -30z m-90 -327 c34 -41 61 -77 61 -82 0
-4 -44 -24 -97 -45 -119 -45 -200 -53 -358 -35 l-113 12 -10 57 c-6 31 -9 57
-7 59 1 1 65 9 141 17 192 21 253 36 284 73 14 16 28 26 32 23 3 -3 34 -39 67
-79z m602 76 c49 -16 114 -63 140 -100 l23 -31 -29 -25 -29 -25 40 -36 c43
-38 133 -138 98 -108 -19 16 -23 16 -34 2 -10 -12 -10 -18 1 -32 8 -10 -29 22
-81 71 -52 49 -110 96 -128 104 -32 16 -33 15 -66 -17 -35 -34 -43 -34 -81 0
-19 17 -24 16 -128 -34 -79 -37 -111 -47 -119 -39 -16 16 10 52 111 153 114
114 194 147 282 117z m-431 -121 c0 -2 -12 -14 -27 -28 l-28 -24 24 28 c23 25
31 32 31 24z m2345 -47 c-56 -57 -109 -80 -131 -58 -12 12 -2 21 76 61 50 26
94 47 98 47 3 0 -16 -22 -43 -50z m-2425 -15 c0 -12 -92 -49 -179 -72 -100
-26 -216 -31 -296 -14 -27 6 -4 7 70 4 124 -6 194 7 316 56 76 31 89 35 89 26z
m2249 -76 l34 -20 -49 -23 c-97 -45 -121 -49 -165 -32 -22 9 -62 16 -91 16
-45 0 -54 -4 -84 -36 l-34 -36 -96 6 c-94 5 -124 15 -124 42 0 11 19 14 78 15
135 1 254 22 362 62 82 31 126 33 169 6z m-2776 4 c-7 -2 -21 -2 -30 0 -10 3
-4 5 12 5 17 0 24 -2 18 -5z m2044 -51 c80 -15 90 -19 82 -34 -8 -14 -15 -15
-47 -6 -20 5 -50 16 -67 24 -16 7 -48 21 -70 29 -22 8 -29 13 -15 10 14 -3 66
-14 117 -23z m-454 -106 c61 -25 383 -138 485 -171 29 -9 74 -20 100 -23 l47
-7 -37 -18 c-21 -10 -89 -31 -152 -48 l-115 -30 -185 106 c-162 93 -188 105
-206 95 -25 -13 -22 -15 -44 28 -17 33 -15 43 12 75 19 22 22 22 95 -7z m1386
-72 c34 -57 71 -154 65 -169 -4 -10 -32 10 -95 67 l-88 82 27 12 c15 7 36 19
47 28 11 8 21 16 22 16 0 0 11 -16 22 -36z m-1515 -65 c-15 -25 -47 0 -36 29
3 10 9 9 23 -4 10 -9 16 -21 13 -25z m244 -78 c173 -100 173 -97 12 -107 l-95
-6 -47 95 c-41 86 -47 107 -29 107 3 0 75 -40 159 -89z m-199 -16 c0 -17 -3
-16 -24 10 -18 22 -21 32 -13 43 10 11 14 9 24 -10 8 -13 13 -32 13 -43z m895
-7 c3 -17 6 -49 6 -71 0 -35 -6 -45 -41 -76 -132 -114 -124 -103 -124 -173 0
-50 6 -76 32 -130 l32 -68 -50 -89 -50 -89 -50 -7 c-28 -4 -54 -3 -58 1 -4 5
-20 47 -35 94 -59 177 -89 220 -219 312 -56 40 -127 97 -157 127 l-55 56 75 7
c41 4 97 12 123 18 45 9 53 8 97 -17 l48 -27 158 29 c88 15 165 30 172 33 7 2
12 24 12 56 l0 52 39 -4 c34 -3 40 -8 45 -34z m-126 -5 l-3 -37 -145 -27 c-99
-17 -151 -23 -164 -16 -26 13 -11 21 84 45 47 11 114 32 150 45 85 32 82 33
78 -10z m-827 -12 l29 -29 -16 -53 c-25 -86 -48 -115 -120 -150 -35 -18 -67
-30 -70 -27 -3 3 16 52 42 109 64 145 83 179 95 179 6 0 24 -13 40 -29z m89
-106 c0 -26 -116 -144 -198 -200 l-87 -60 -17 -69 c-16 -62 -29 -85 -49 -86
-9 0 19 128 39 178 15 39 24 47 97 81 94 44 128 80 151 158 l16 55 24 -23 c13
-12 24 -28 24 -34z m-288 -89 c-35 -78 -44 -89 -81 -108 -41 -20 -42 -20 -62
-2 -21 19 -20 19 78 110 54 51 99 91 101 90 1 -2 -15 -42 -36 -90z m388 3 c29
-28 103 -89 163 -137 61 -49 129 -113 155 -147 46 -61 108 -183 98 -193 -8 -7
-128 27 -368 104 -238 77 -365 109 -381 97 -7 -5 -24 -14 -39 -21 l-27 -11 16
52 c19 67 23 71 104 113 74 39 99 60 133 114 16 26 77 80 90 80 1 0 26 -23 56
-51z m-541 -156 c2 -1 -56 -65 -128 -141 l-132 -139 -77 -17 c-56 -12 -85 -14
-103 -7 l-24 10 25 2 c14 1 30 1 35 1 6 -1 89 73 185 162 168 157 176 163 195
148 11 -9 22 -18 24 -19z m89 12 c-9 -19 -14 -22 -25 -14 -11 10 -10 14 4 25
27 20 34 17 21 -11z m-1119 -1 l32 -7 -27 -28 c-22 -23 -30 -26 -46 -18 -24
13 -48 -6 -90 -70 -32 -52 -35 -68 -10 -74 9 -3 -20 -5 -65 -6 -45 0 -89 -4
-99 -8 -15 -6 -16 0 -10 66 4 40 10 79 13 87 6 17 85 43 165 53 86 12 101 12
137 5z m1076 -50 c13 -8 22 -21 20 -27 -2 -7 -9 -38 -15 -69 l-11 -57 -62 -20
c-34 -11 -94 -29 -134 -40 l-71 -19 120 124 c67 68 123 124 125 124 2 0 15 -7
28 -16z m1244 -248 c-5 -4 -143 -35 -146 -32 -1 1 16 34 39 74 l40 73 35 -56
c19 -31 34 -57 32 -59z m-2269 -8 c46 -51 80 -90 75 -85 -11 10 -56 -33 -48
-47 3 -6 -34 28 -83 76 l-88 87 29 31 c16 16 29 30 30 30 1 0 39 -42 85 -92z"/>
<path d="M2641 3180 c-56 -82 -107 -150 -114 -150 -31 0 -350 -29 -352 -32 -1
-2 32 -77 74 -168 l77 -165 -78 -162 c-43 -88 -78 -165 -78 -171 0 -5 83 -15
184 -22 l184 -13 99 -145 c54 -80 104 -147 110 -149 6 -2 55 60 109 139 53 79
100 146 103 150 3 4 80 12 171 19 91 7 172 15 182 18 14 5 4 31 -63 172 l-79
167 79 163 c44 90 78 166 76 168 -4 4 -293 30 -337 31 -23 0 -39 18 -113 127
-108 158 -119 172 -126 173 -3 0 -51 -67 -108 -150z m148 -88 c17 -27 31 -51
31 -53 0 -2 -31 -4 -70 -4 -38 0 -70 1 -70 3 0 7 66 102 71 102 4 0 21 -22 38
-48z m-345 -219 c-54 -94 -49 -93 -83 -25 l-31 61 48 4 c26 2 58 4 70 5 l24 2
-28 -47z m526 -79 l72 -127 -22 -41 c-12 -23 -45 -80 -73 -128 l-51 -88 -146
0 -145 0 -73 124 c-39 69 -72 128 -72 132 0 4 32 62 71 130 l70 124 149 0 149
0 71 -126z m176 108 c9 -5 4 -23 -15 -60 l-27 -53 -30 53 c-16 29 -30 56 -32
60 -5 10 89 10 104 0z m-742 -480 c-31 -2 -59 0 -62 3 -3 3 7 31 22 62 l28 57
34 -59 34 -60 -56 -3z m733 6 c-31 -9 -99 -9 -95 0 2 4 16 31 33 59 l30 53 26
-53 27 -52 -21 -7z m-349 -188 c-18 -27 -35 -50 -38 -50 -5 0 -60 87 -60 95 0
3 29 5 65 5 l65 0 -32 -50z"/>
<path d="M1493 2368 c-25 -27 -53 -81 -53 -101 0 -13 5 -13 38 -1 20 7 45 13
55 14 18 0 22 32 8 79 -9 33 -23 36 -48 9z"/>
<path d="M1400 2067 c0 -32 42 -67 81 -67 l29 0 -37 33 c-72 62 -73 63 -73 34z"/>
<path d="M1528 2003 c7 -3 16 -2 19 1 4 3 -2 6 -13 5 -11 0 -14 -3 -6 -6z"/>
<path d="M3005 3852 c6 -6 54 -27 107 -46 177 -64 312 -142 398 -230 24 -25
49 -46 54 -46 17 0 -97 104 -160 147 -78 53 -148 88 -269 134 -148 55 -141 53
-130 41z"/>
<path d="M3551 1914 c0 -11 3 -14 6 -6 3 7 2 16 -1 19 -3 4 -6 -2 -5 -13z"/>
<path d="M3612 1620 c0 -14 2 -19 5 -12 2 6 2 18 0 25 -3 6 -5 1 -5 -13z"/>
<path d="M1264 1538 l-29 -33 33 29 c30 28 37 36 29 36 -2 0 -16 -15 -33 -32z"/>
<path d="M272 1090 c0 -14 2 -19 5 -12 2 6 2 18 0 25 -3 6 -5 1 -5 -13z"/>
</g>
</svg>
