<?xml version="1.0" standalone="no"?>
<!DOCTYPE svg PUBLIC "-//W3C//DTD SVG 20010904//EN"
 "http://www.w3.org/TR/2001/REC-SVG-20010904/DTD/svg10.dtd">
<svg version="1.0" xmlns="http://www.w3.org/2000/svg"
 width="700.000000pt" height="700.000000pt" viewBox="0 0 700.000000 700.000000"
 preserveAspectRatio="xMidYMid meet">
<metadata>
Created by potrace 1.14, written by Peter Selinger 2001-2017
</metadata>
<g transform="translate(0.000000,700.000000) scale(0.100000,-0.100000)"
fill="#000000" stroke="none">
<path d="M3402 6167 c-6 -40 -14 -92 -17 -117 -4 -25 -8 -56 -10 -70 -2 -14
-7 -47 -10 -75 -6 -61 -25 -201 -30 -235 -2 -14 -7 -45 -10 -70 -8 -65 -14
-110 -30 -235 -3 -22 -8 -51 -10 -65 -2 -14 -7 -50 -10 -80 -3 -30 -10 -82
-15 -115 -5 -33 -12 -88 -16 -123 l-6 -63 28 5 c111 21 301 26 429 12 407 -45
803 -292 1030 -644 26 -41 69 -120 97 -178 33 -69 55 -104 66 -105 9 0 26 -2
37 -4 11 -2 40 -7 65 -10 124 -16 207 -26 230 -30 14 -2 48 -6 75 -9 28 -4 70
-9 94 -12 l43 -7 -7 34 c-17 80 -89 290 -124 359 -129 257 -233 404 -410 579
-81 81 -307 261 -326 261 -4 0 -20 9 -36 21 -35 24 -264 139 -279 139 -6 0
-18 4 -28 10 -22 12 -191 65 -258 80 -48 11 -54 15 -88 73 -20 34 -116 188
-213 342 -96 154 -192 308 -213 342 l-37 62 -11 -72z"/>
<path d="M3029 5409 c-327 -97 -562 -222 -789 -418 -197 -171 -363 -387 -476
-620 -57 -116 -136 -339 -149 -418 -6 -39 -12 -45 -83 -91 -98 -62 -159 -100
-247 -154 -38 -23 -72 -45 -75 -49 -3 -3 -10 -8 -15 -10 -6 -2 -97 -58 -203
-124 -212 -133 -209 -127 -77 -140 35 -3 72 -7 82 -9 10 -2 61 -9 113 -16 52
-6 106 -13 120 -15 14 -3 48 -7 75 -10 28 -3 61 -8 75 -10 14 -2 81 -11 150
-20 144 -19 167 -22 218 -29 36 -5 245 -32 329 -43 l41 -5 -10 39 c-13 51 -20
377 -9 433 5 25 12 61 15 80 19 118 91 321 154 430 150 261 355 455 620 586
73 37 134 69 136 73 2 3 7 33 11 66 6 54 38 305 51 395 3 19 7 47 10 62 5 25
3 28 -19 26 -13 -1 -35 -5 -48 -9z"/>
<path d="M3505 4227 c-42 -84 -411 -813 -633 -1246 -108 -214 -121 -242 -96
-226 16 10 92 64 169 119 77 56 151 109 165 118 36 24 303 216 315 226 21 17
104 72 109 72 5 0 125 -92 321 -245 212 -166 431 -332 433 -330 1 1 -15 40
-37 86 -21 46 -118 257 -216 469 -97 212 -187 408 -200 435 -33 72 -83 181
-115 250 -27 60 -61 133 -128 278 -19 42 -38 77 -41 77 -3 -1 -24 -38 -46 -83z"/>
<path d="M4935 3768 c18 -108 21 -160 19 -280 -1 -73 -5 -149 -8 -168 -64
-405 -272 -747 -591 -975 -85 -61 -250 -150 -311 -169 -18 -5 -23 -17 -29 -62
-4 -31 -8 -66 -10 -78 -3 -19 -7 -50 -20 -151 -3 -16 -9 -66 -15 -110 -6 -44
-13 -101 -16 -127 l-5 -46 43 10 c56 12 229 70 293 98 358 154 660 405 876
730 105 158 218 417 264 608 12 51 24 77 39 86 547 341 767 479 771 485 2 5
-17 11 -43 14 -26 3 -96 13 -157 21 -60 8 -132 17 -160 21 -27 3 -61 7 -75 10
-14 2 -50 7 -80 10 -30 4 -64 8 -75 10 -11 2 -45 6 -75 9 -30 4 -82 11 -115
16 -33 5 -85 12 -115 15 -30 4 -64 8 -75 10 -11 1 -42 6 -70 9 -27 4 -66 9
-85 11 -19 3 -52 7 -72 10 -21 3 -54 7 -73 10 -36 5 -36 5 -30 -27z"/>
<path d="M1617 3057 c3 -18 23 -84 43 -147 97 -300 254 -555 479 -780 189
-188 352 -299 621 -423 58 -27 272 -95 321 -102 43 -6 47 -10 90 -78 24 -39
49 -80 54 -89 36 -64 371 -594 377 -596 5 -2 8 -9 8 -17 0 -7 6 -17 13 -24 11
-8 16 9 25 92 7 56 14 113 16 127 3 14 7 48 11 75 6 52 31 240 41 310 3 22 7
58 10 80 2 22 11 90 19 150 9 61 18 130 21 155 3 25 7 56 9 70 2 14 9 63 15
110 5 47 12 97 15 111 5 26 4 27 -32 19 -60 -13 -191 -24 -277 -22 -373 7
-720 155 -986 422 -122 122 -210 246 -282 398 -28 59 -52 108 -53 110 -3 4
-42 11 -95 17 -25 3 -61 8 -80 11 -127 18 -179 25 -210 29 -19 2 -60 7 -90 11
-30 3 -63 8 -72 10 -14 2 -16 -3 -11 -29z"/>
</g>
</svg>
