<?xml version="1.0" encoding="UTF-8" standalone="no"?>
<svg xmlns:dc="http://purl.org/dc/elements/1.1/"
     xmlns:cc="http://creativecommons.org/ns#"
     xmlns:rdf="http://www.w3.org/1999/02/22-rdf-syntax-ns#"
     xmlns:svg="http://www.w3.org/2000/svg"
     xmlns="http://www.w3.org/2000/svg"
     version="1.0"
     width="16" height="16" viewBox="0 0 24 24"
     id="svg2">
    <metadata id="metadata10">
        <rdf:RDF>
            <cc:Work rdf:about="">
                <dc:format>image/svg+xml</dc:format>
                <dc:type rdf:resource="http://purl.org/dc/dcmitype/StillImage" />
                <cc:license rdf:resource="http://web.resource.org/cc/PublicDomain" />
                <dc:language>en</dc:language>
                <dc:title></dc:title>
            </cc:Work>
        </rdf:RDF>
    </metadata>
    <defs id="defs4">
        <style type="text/css"
               id="style6">

            .fil0 {fill:#EF7900}

        </style>
        <marker viewBox="0 0 10 10"
                refY="5"
                refX="10"
                orient="auto"
                markerWidth="4"
                markerUnits="strokeWidth"
                markerHeight="3"
                id="ArrowStart">
            <path id="path2295"
                  d="M 10,0 0,5 10,10 Z" />
        </marker>
        <marker viewBox="0 0 10 10"
                refY="5"
                refX="0"
                orient="auto"
                markerWidth="4"
                markerUnits="strokeWidth"
                markerHeight="3"
                id="ArrowEnd">
            <path id="path2292"
                  d="M 0,0 10,5 0,10 Z" />
        </marker>
    </defs>
    <g id="g2319"
       transform="translate(879.29125,-519.19488)">
        <path id="path2323"
              style="fill:#ffffff;stroke:none"
              d="" />
    </g>
    <g id="g2325"
       transform="translate(879.29125,-519.19488)">
        <path id="path2329"
              style="fill:#ffffff;stroke:none"
              d="" />
    </g>
    <g transform="matrix(0.14419935,0,0,0.13501621,-35.759276,-50.146527)"
       id="g3257"
       style="fill:#000000;fill-opacity:1">
        <path id="path2449"
              d="m 297.97587,371.41171 c -9.61479,0 -14.71521,5.24905 -17.06988,11.39325 l -12.49926,32.2742 c -4.95493,0.63535 -13.73852,6.45153 -13.73852,17.46965 l 0,41.04232 12.16612,0 0,13.12557 c 0,16.14828 22.85312,15.9581 22.85312,0 l 0,-13.12557 41.10896,0 0.0134,0 41.10894,0 0,13.12557 c 0,15.9581 22.85301,16.14828 22.85314,0 l 0,-13.12557 12.1661,0 0,-41.04232 c 0,-11.01812 -8.78353,-16.8343 -13.73855,-17.46965 l -12.51255,-32.2742 c -2.35466,-6.1442 -7.45505,-11.39325 -17.06991,-11.39325 l -17.66949,0 -30.08887,0 -17.88271,0 -4e-5,0 z m -0.14658,11.75303 32.94048,0 0.0266,0 0.0134,0 32.95377,0 c 4.12043,0.0384 5.88516,2.6152 7.06248,6.183 l 9.42107,25.39829 -49.43732,0 -0.0134,0 -0.0266,0 -49.42404,0 9.42108,-25.39829 c 1.17734,-3.5678 2.94162,-6.14463 7.06248,-6.183 z m -19.20195,43.93396 c 5.83036,0 10.55374,4.86452 10.55374,10.87355 0,6.00945 -4.72338,10.88689 -10.55374,10.88689 -5.82992,0 -10.55374,-4.87744 -10.55374,-10.88689 0,-6.00901 4.72382,-10.87355 10.55374,-10.87355 z m 104.35147,0 c 5.83037,0 10.55379,4.86454 10.55375,10.87355 0,6.00945 -4.72338,10.88689 -10.55375,10.88689 -5.82992,0 -10.56709,-4.87744 -10.56709,-10.88689 0,-6.00903 4.73717,-10.87355 10.56709,-10.87355 z"
              style="fill:#000000;fill-opacity:1;stroke:none" />
        <path style="color:#000000;font-style:normal;font-variant:normal;font-weight:normal;font-stretch:normal;font-size:medium;line-height:normal;font-family:'Bitstream Vera Sans';-inkscape-font-specification:'Bitstream Vera Sans';text-indent:0;text-align:start;text-decoration:none;text-decoration-line:none;letter-spacing:normal;word-spacing:normal;text-transform:none;direction:ltr;block-progression:tb;writing-mode:lr-tb;text-anchor:start;display:inline;overflow:visible;visibility:visible;fill:#000000;fill-opacity:1;fill-rule:nonzero;stroke:#000000;stroke-width:3.71662974;stroke-linecap:round;stroke-linejoin:round;stroke-miterlimit:4;stroke-dasharray:none;stroke-opacity:1;marker:none;enable-background:accumulate"
              d="m 295.0625,508.91991 c -12.68364,0.37813 -27.34355,4.81025 -45.21875,15.40625 L 257,536.41991 c 18.84249,-11.16939 31.98665,-14.05017 42.53125,-13.40625 10.5446,0.64392 19.1261,4.92409 28.75,10.125 9.6239,5.20091 20.18548,11.32533 33.84375,13.4375 13.65827,2.11217 29.98445,-0.0644 50.4375,-9.875 l -6.09375,-12.65625 c -18.61546,8.92918 -31.52532,10.30509 -42.1875,8.65625 -10.66218,-1.64884 -19.49817,-6.60243 -29.3125,-11.90625 -9.81433,-5.30382 -20.7165,-10.96507 -34.59375,-11.8125 -1.73466,-0.10593 -3.50055,-0.11652 -5.3125,-0.0625 z"
              id="path3236" />
    </g>
</svg>
