<svg xmlns="http://www.w3.org/2000/svg" version="1" width="16" height="16" viewBox="0 0 24 24">
    <path d="M 0 0 L 0 20 L 8 24 L 16 20 L 24 24 L 24 7.3125 C 23.5 7.9125 22.7 8.70625 22 9.40625 L 22 20.6875 L 17 18.15625 L 17 14.09375 L 16 14.5 L 16 17.8125 L 15.09375 18.1875 L 9 21.3125 L 9 4.6875 L 15.90625 2.09375 L 17.5 3 L 19 1.5 L 16 0 L 8 3 L 0 0 z M 21.84375 2 C 21.48125 2 21.2 2.1625 21 2.3125 C 20.9 2.4125 20.39375 2.8 20.09375 3 C 20.49375 3 21.20625 3.20625 21.90625 3.90625 C 22.70625 4.70625 22.8125 5.2875 22.8125 5.6875 C 23.1125 5.3875 23.5 4.8125 23.5 4.8125 C 24 4.4125 24.2875 3.49375 23.1875 2.59375 C 22.6375 2.14375 22.20625 2 21.84375 2 z M 2 2.90625 L 7.3125 4.90625 L 8 5.09375 L 8 21.8125 L 2 18.8125 L 2 2.90625 z M 19.59375 3.5 L 19.1875 3.90625 C 19.1875 3.90625 20 4 21 5 C 21.6 5.6 21.9 6.1875 22 6.6875 L 22.40625 6.3125 C 22.40625 6.3125 22.5 5.6 21.5 4.5 C 20.4 3.5 19.59375 3.5 19.59375 3.5 z M 18.6875 4.40625 L 14 9.09375 C 14 9.09375 14.3875 9.40625 15.1875 9.40625 C 15.3875 9.80625 15.5 10.1875 16.5 10.6875 C 16.4 11.4875 16.8125 11.90625 16.8125 11.90625 L 21.5 7.1875 C 21.5 6.6875 21.1 6.00625 20.5 5.40625 C 19.6 4.60625 18.8875 4.40625 18.6875 4.40625 z M 13.6875 9.59375 L 12 14 L 16.3125 12.1875 C 16.3125 12.1875 16 11.4875 16 11.1875 C 15.7 11.0875 14.89375 10.6125 14.59375 9.8125 C 13.89375 9.8125 13.6875 9.59375 13.6875 9.59375 z"></path>
</svg>