<?xml version="1.0" encoding="UTF-8" standalone="no"?>
<svg xmlns:dc="http://purl.org/dc/elements/1.1/"
     xmlns:cc="http://creativecommons.org/ns#"
     xmlns:rdf="http://www.w3.org/1999/02/22-rdf-syntax-ns#"
     xmlns:svg="http://www.w3.org/2000/svg"
     xmlns="http://www.w3.org/2000/svg"
     version="1.0"
     width="16" height="16" viewBox="0 0 24 24"
     id="svg2">
    <metadata id="metadata2975">
        <rdf:RDF>
            <cc:Work rdf:about="">
                <dc:format>image/svg+xml</dc:format>
                <dc:type rdf:resource="http://purl.org/dc/dcmitype/StillImage" />
                <cc:license rdf:resource="http://web.resource.org/cc/PublicDomain" />
                <dc:language>en</dc:language>
                <dc:title></dc:title>
            </cc:Work>
        </rdf:RDF>
    </metadata>
    <defs id="defs4">
        <symbol viewBox="244.5 110 489 219.9"
                id="symbol-university">
            <path id="path4460"
                  d="m 79,43 57,119 c 0,0 21,-96 104,-96 83,0 124,106 124,106 L 407,39 489,22 0,17 79,43 Z" />
            <path id="path4462"
                  d="M 94,176 73,215"
                  style="fill:none;stroke:#000000;stroke-width:20" />
            <path id="path4464"
                  d="M 300,19 C 300,29.5 277.4,38 249.5,38 221.6,38 199,29.5 199,19 199,8.5 221.6,0 249.5,0 277.4,0 300,8.5 300,19 Z" />
            <path id="path4466"
                  d="M 112,216 96,178 64,88 C 64,88 55,80 60,53 65,26 76,29 76,29"
                  ill="none"
                  style="stroke:#000000;stroke-width:20" />
        </symbol>
    </defs>
    <g id="layer3"
       style="display:none;stroke:#757575;stroke-opacity:1"
       transform="matrix(48.14969,0,0,48.14969,-536.27327,-589.30675)">
        <rect style="display:inline;fill:none;stroke:#757575;stroke-width:0.1;stroke-miterlimit:4;stroke-dasharray:none;stroke-opacity:1"
              id="rect4134"
              width="10"
              height="10"
              x="1"
              y="1" />
        <rect style="display:inline;fill:none;stroke:#757575;stroke-width:0.1;stroke-miterlimit:4;stroke-dasharray:none;stroke-opacity:1"
              id="rect4136"
              width="8"
              height="8"
              x="2"
              y="2" />
    </g>
    <g id="g5357"
       transform="matrix(0.06458997,0,0,0.06256977,-4.4128368,-8.0576422)"
       style="stroke:#ffffff;stroke-opacity:1">
        <path id="path4817"
              d="M 256.05495,237.14675 241.67023,317.3127"
              style="fill:none;stroke:#000000;stroke-width:74.19999695;stroke-linecap:round;stroke-linejoin:round;stroke-miterlimit:4;stroke-dasharray:none;stroke-opacity:1" />
        <path id="path5329"
              d="M 330.52502,307.73122 296.11201,278.04332 273.66832,225.7194"
              style="fill:none;stroke:#000000;stroke-width:32.59999847;stroke-linecap:round;stroke-linejoin:round;stroke-miterlimit:4;stroke-dasharray:none;stroke-opacity:1" />
        <path id="path5331"
              d="M 313.55883,487.77682 302.16655,393.38367"
              style="fill:none;stroke:#000000;stroke-width:41.29999924;stroke-linecap:round;stroke-linejoin:round;stroke-miterlimit:4;stroke-dasharray:none;stroke-opacity:1" />
        <path id="path5333"
              d="m 245.20517,315.8077 54.24893,74.86352"
              style="fill:none;stroke:#000000;stroke-width:45.09999847;stroke-linecap:round;stroke-linejoin:round;stroke-miterlimit:4;stroke-dasharray:none;stroke-opacity:1" />
        <path style="fill:none;stroke:#000000;stroke-width:45.09999847;stroke-linecap:round;stroke-linejoin:round;stroke-miterlimit:4;stroke-dasharray:none;stroke-opacity:1"
              d="m 226.76053,316.89268 1.62747,87.34077"
              id="path5335" />
        <path style="fill:none;stroke:#000000;stroke-width:45.30612183;stroke-linecap:round;stroke-linejoin:round;stroke-miterlimit:4;stroke-dasharray:none;stroke-opacity:1"
              d="m 192.04122,489.40429 37.43176,-80.83092"
              id="path5337" />
        <path style="fill:#800000;fill-opacity:1;stroke:#000000;stroke-width:45.09986877;stroke-linecap:round;stroke-linejoin:round;stroke-miterlimit:4;stroke-dasharray:none;stroke-opacity:1"
              d="m 278.89197,151.40646 c -9.43171,0.42792 -13.14501,14.03074 -5.34375,19.21875 7.10539,5.86065 18.86748,-1.24234 16.9375,-10.3125 -0.85188,-5.43638 -6.10237,-9.52 -11.59375,-8.90625 z"
              id="path5339" />
        <path style="fill:none;stroke:#000000;stroke-width:32.59999847;stroke-linecap:round;stroke-linejoin:round;stroke-miterlimit:4;stroke-dasharray:none;stroke-opacity:1"
              d="m 177.5811,312.56103 16.29998,-55.44688 51.61336,-38.63946"
              id="path5417" />
    </g>
</svg>
