<?xml version="1.0" encoding="utf-8"?>
<!-- Generator: Adobe Illustrator 17.1.0, SVG Export Plug-In . SVG Version: 6.00 Build 0)  -->
<!DOCTYPE svg PUBLIC "-//W3C//DTD SVG 1.1//EN" "http://www.w3.org/Graphics/SVG/1.1/DTD/svg11.dtd">
<svg version="1.1" id="Arrow_1_" xmlns="http://www.w3.org/2000/svg" xmlns:xlink="http://www.w3.org/1999/xlink" x="0px" y="0px"
	 width="16px" height="16px" viewBox="0 0 500 500" enable-background="new 0 0 500 500" xml:space="preserve">
  <metadata>
    <?xpacket begin="﻿" id="W5M0MpCehiHzreSzNTczkc9d"?>
    <x:xmpmeta xmlns:x="adobe:ns:meta/" x:xmptk="Adobe XMP Core 5.6-c011 79.156380, 2014/06/19-23:40:37        ">
     <rdf:RDF xmlns:rdf="http://www.w3.org/1999/02/22-rdf-syntax-ns#">
      <rdf:Description rdf:about=""
        xmlns:xmpMM="http://ns.adobe.com/xap/1.0/mm/"
        xmlns:stEvt="http://ns.adobe.com/xap/1.0/sType/ResourceEvent#"
        xmlns:stRef="http://ns.adobe.com/xap/1.0/sType/ResourceRef#"
        xmlns:xmp="http://ns.adobe.com/xap/1.0/"
        xmlns:xmpRights="http://ns.adobe.com/xap/1.0/rights/"
        xmlns:dc="http://purl.org/dc/elements/1.1/"
       xmpMM:DocumentID="xmp.did:911bd037c39050480ca09daff82c25be"
       xmpMM:OriginalDocumentID="xmp.did:b7cd8215e73d88af1a2cd330dfc85486"
       xmpMM:InstanceID="xmp.iid:911bd037c39050480ca09daff82c25be"
       xmp:ModifyDate="2015-04-09T16:39:45+02:00"
       xmp:MetadataDate="2015-04-09T16:39:45+02:00"
       xmpRights:Marked="True"
       xmpRights:WebStatement="http://www.adobe.com/legal/general-terms.html">
       <xmpMM:History>
        <rdf:Seq>
         <rdf:li
          stEvt:action="saved"
          stEvt:instanceID="xmp.iid:b7cd8215e73d88af1a2cd330dfc85486"
          stEvt:when="2015-04-09T16:28:57+02:00"/>
         <rdf:li
          stEvt:action="copied"
          stEvt:instanceID="xmp.iid:911bd037c39050480ca09daff82c25be"
          stEvt:when="2015-04-09T16:39:45+02:00"/>
        </rdf:Seq>
       </xmpMM:History>
       <xmpMM:DerivedFrom
        stRef:documentID="xmp.did:b7cd8215e73d88af1a2cd330dfc85486"
        stRef:originalDocumentID="xmp.did:b7cd8215e73d88af1a2cd330dfc85486"
        stRef:instanceID="xmp.iid:b7cd8215e73d88af1a2cd330dfc85486"
        stRef:lastModifyDate="2015-04-09T16:28:57+02:00"/>
       <xmpRights:UsageTerms>
        <rdf:Alt>
         <rdf:li xml:lang="x-default">This work is licensed under the Adobe General Terms of Use http://www.adobe.com/legal/general-terms.html.</rdf:li>
        </rdf:Alt>
       </xmpRights:UsageTerms>
       <dc:publisher>
        <rdf:Bag>
         <rdf:li>Adobe Systems Incorporated</rdf:li>
        </rdf:Bag>
       </dc:publisher>
      </rdf:Description>
     </rdf:RDF>
    </x:xmpmeta>
    <?xpacket end="r"?>
  </metadata>
<g>
	<polygon fill="#231F20" points="452.7,134.1 255.5,30.5 50,134.3 248.2,245.2"/>
	<path fill="#231F20" d="M10.8,147.4l231.8,126.2c2.3,1.3,4.9,1.9,7.5,1.9c2.5,0,5.1-0.6,7.4-1.9l234.3-126.2
		c5.1-2.7,8.3-8.1,8.2-13.9c-0.1-5.8-3.4-11.1-8.5-13.7L259.6,2.1c-4.4-2.2-9.6-2.3-14.1,0L11.3,119.8c-5.2,2.6-8.5,7.9-8.6,13.7
		C2.6,139.3,5.7,144.7,10.8,147.4z M252.5,33.5l198.2,100.7L250.2,242.2L52,134.3L252.5,33.5z"/>
	<path fill="#231F20" d="M488.8,234.5L442.4,211L409,229l39,19.8L247.5,356.9L49.3,249l41.6-20.9l-33.4-18.2L8.6,234.5
		c-5.2,2.6-8.5,7.9-8.6,13.7c-0.1,5.8,3,11.2,8.1,14L240,388.4c2.3,1.3,4.9,1.9,7.5,1.9c2.5,0,5.1-0.6,7.4-1.9l234.3-126.2
		c5.1-2.7,8.3-8.1,8.2-13.9C497.2,242.5,493.9,237.2,488.8,234.5z"/>
	<path fill="#231F20" d="M488.8,343.8l-43.9-21.6l-33.5,18l36.6,17.9L247.5,466.2L49.3,358.3L88,340.8l-33.4-18.2l-46,21.2
		c-5.2,2.6-8.5,7.9-8.6,13.7c-0.1,5.8,3,11.2,8.1,14L240,497.7c2.3,1.3,4.9,1.9,7.5,1.9c2.5,0,5.1-0.6,7.4-1.9l234.3-126.2
		c5.1-2.7,8.3-8.1,8.2-13.9C497.2,351.8,493.9,346.5,488.8,343.8z"/>
</g>
</svg>
