<svg xmlns="http://www.w3.org/2000/svg" viewBox="0 0 1024 1024">
    <g transform="translate(0 960) scale(1 -1)">
        <path d="M878 439L878 366Q878 337 860 315Q842 293 811 293L409 293L576 125Q586 115 592 101.5Q598 88 598 73Q598 59 592 45.5Q586 32 576 22L533 -22Q523 -32 509.5 -37.5Q496 -43 482 -43Q467 -43 453.5 -37.5Q440 -32 430 -22L58 351Q48 361 42.5 374.5Q37 388 37 402Q37 417 42.5 430.5Q48 444 58 454L430 826Q440 836 453.5 841.5Q467 847 482 847Q496 847 509.5 841.5Q523 836 533 826L576 783Q586 773 592 759.5Q598 746 598 731Q598 717 592 703.5Q586 690 576 679L409 512L811 512Q842 512 860 490Q878 468 878 439Z" />
    </g>
</svg>
