<svg xmlns="http://www.w3.org/2000/svg" viewBox="0 0 1024 1024">
    <g transform="translate(0 960) scale(1 -1)">
        <path d="M533 816L533 743Q579 741 622.5 729.5Q666 718 705 699L740 763Q693 786 641 800Q589 814 533 816ZM483 816Q425 813 372 797.5Q319 782 271 756L306 692Q346 713 390.5 726Q435 739 483 742ZM784 738L749 674Q790 648 824 613.5Q858 579 884 539L948 573Q917 623 875.5 665Q834 707 784 738ZM228 730Q178 697 137.5 653.5Q97 610 67 558L131 523Q156 566 189 602Q222 638 263 666ZM972 529L908 495Q926 457 937 415Q948 373 951 329L1024 329Q1021 383 1008 433.5Q995 484 972 529ZM44 513Q25 471 13.5 424.5Q2 378 0 329L73 329Q76 369 85 406.5Q94 444 109 478ZM0 279Q3 226 16 175.5Q29 125 51 80L115 116Q97 154 86.5 194.5Q76 235 73 279ZM951 279Q948 234 937 192Q926 150 907 112L975 83Q996 128 1008.5 177Q1021 226 1024 279ZM512 693Q512 693 512 693Q512 693 512 693Q434 693 365 664Q296 634 245 583Q194 532 164 463Q135 394 135 316L135 316L479 316L651 576Q657 587 671 589.5Q685 592 698 585Q712 578 718 565.5Q724 553 719 541L630 316L889 316Q889 316 889 316Q889 316 889 316Q889 394 860 463Q830 532 779 583Q728 634 659 664Q590 693 512 693L512 693ZM681 552Q675 555 668 553.5Q661 552 658 545L492 273Q464 274 440 260Q416 246 404 222Q386 186 398 148.5Q410 111 445 94Q480 76 517.5 88Q555 100 573 135Q586 159 583.5 186.5Q581 214 564 236L690 529Q693 535 690.5 542Q688 549 681 552Z" />
    </g>
</svg>
