<svg xmlns="http://www.w3.org/2000/svg" viewBox="0 0 1024 1024">
    <g transform="translate(0 960) scale(1 -1)">
        <path d="M585 329Q585 322 582 315.5Q579 309 574 303L318 47Q313 42 306.5 39.5Q300 37 293 37Q285 37 278.5 39.5Q272 42 267 47L11 303Q6 309 3 315.5Q0 322 0 329Q0 344 11 355Q22 366 37 366L549 366Q564 366 574.5 355Q585 344 585 329ZM585 549Q585 534 574.5 523Q564 512 549 512L37 512Q22 512 11 523Q0 534 0 549Q0 556 3 562.5Q6 569 11 574L267 830Q272 835 278.5 838Q285 841 293 841Q300 841 306.5 838Q313 835 318 830L574 574Q579 569 582 562.5Q585 556 585 549Z" />
    </g>
</svg>
