<?xml version="1.0" encoding="UTF-8"?>
<svg width="26" height="26" version="1.1" viewBox="0 0 15 15" xmlns="http://www.w3.org/2000/svg" xmlns:cc="http://creativecommons.org/ns#" xmlns:dc="http://purl.org/dc/elements/1.1/" xmlns:rdf="http://www.w3.org/1999/02/22-rdf-syntax-ns#">
 <g transform="translate(-1 -668.36)">
  <path d="m3.3423 668.36c-0.15982 4e-3 -0.32108 0.0669-0.44889 0.19358-2.5244 2.6604-2.5244 6.968 0 9.6283 0.12781 0.12669 0.28912 0.18967 0.44889 0.18968 0.15978 0 0.32001-0.0614 0.41587-0.15643 0.25564-0.2217 0.25477-0.63438 0.031-0.88775-2.0451-2.1536-2.044-5.734 0.033-7.9193 0.22368-0.25337 0.2226-0.63242-0.033-0.88579-0.12782-0.11085-0.28713-0.1661-0.44695-0.1623zm10.334 0.088c-0.16536-4e-3 -0.33538 0.0507-0.46445 0.16033-0.25812 0.25036-0.25698 0.62566-0.031 0.87602 2.0973 2.1593 2.0973 5.6955 0 7.8548-0.22586 0.25036-0.227 0.62565 0.031 0.87601 0.12907 0.12518 0.29069 0.15643 0.41975 0.15643 0.16133 0 0.32372-0.0626 0.45279-0.18772 2.549-2.6288 2.5479-6.9155 0.031-9.5443-0.11293-0.12518-0.27381-0.18772-0.43918-0.19162zm-8.2202 1.8967c-0.14524 4e-3 -0.29189 0.0678-0.40809 0.19554-1.3363 1.5646-1.3363 4.0872 0 5.6198 0.1162 0.12772 0.26285 0.19163 0.40809 0.19163 0.14525 0 0.28985-0.0626 0.377-0.15839 0.2324-0.2235 0.2325-0.63817 0.0292-0.89361-0.92958-1.0856-0.92958-2.8428 0-3.9284 0.23239-0.22352 0.23239-0.60689 0-0.86233-0.11619-0.11176-0.2609-0.16824-0.40615-0.16425zm6.1564 0c-0.15051-4e-3 -0.30423 0.0532-0.4217 0.16425-0.23494 0.22234-0.23474 0.63367-0.0292 0.88775 0.93978 1.0799 0.93978 2.827 0 3.9069-0.20558 0.25408-0.20578 0.63561 0.0292 0.8897 0.11747 0.12704 0.26536 0.15839 0.38284 0.15839 0.14684 0 0.29255-0.0627 0.41002-0.18968 1.3509-1.5563 1.3507-4.0655 0.0291-5.6217-0.10279-0.12704-0.2498-0.19156-0.40031-0.19554zm-3.0879 1.5017a1.4924 1.5017 0 0 0-1.4924 1.5017 1.4924 1.5017 0 0 0 0.99497 1.4157v7.5947h-1.508c-0.26722 0-0.48195 0.218-0.48195 0.48689v0.0293c0 0.26888 0.21473 0.48494 0.48195 0.48494h4.009c0.26723 0 0.48195-0.21606 0.48195-0.48494v-0.0293c0-0.26889-0.21472-0.48689-0.48195-0.48689h-1.506v-7.5967a1.4924 1.5017 0 0 0 0.99497-1.4138 1.4924 1.5017 0 0 0-1.4925-1.5017z"/>
 </g>
</svg>
