<?xml version="1.0" encoding="UTF-8" standalone="no"?>
<svg width="28" height="28" version="1.1" viewBox="0 0 14 14" xmlns:dc="http://purl.org/dc/elements/1.1/" xmlns:cc="http://creativecommons.org/ns#" xmlns:rdf="http://www.w3.org/1999/02/22-rdf-syntax-ns#" xmlns:svg="http://www.w3.org/2000/svg" xmlns="http://www.w3.org/2000/svg">
   <g transform="translate(0 0)">
      <path fill="#734a08" d="M 4 0 L 5 2 L 6 2 L 5 4 L 6 6 L 5 8 L 6 10 L 5 12 L 9 12 L 8 10 L 9 8 L 8 6 L 9 4 L 8 2 L 9 2 L 10 0 L 4 0 z M 7 3 A 1 1 0 0 1 8 4 A 1 1 0 0 1 7 5 A 1 1 0 0 1 6 4 A 1 1 0 0 1 7 3 z M 7 7 A 1 1 0 0 1 8 8 A 1 1 0 0 1 7 9 A 1 1 0 0 1 6 8 A 1 1 0 0 1 7 7 z M 3 13 L 3 14 L 11 14 L 11 13 L 3 13 z "/>
   </g>
</svg>
