<?xml version="1.0" encoding="UTF-8"?>
<svg width="26" height="26" version="1.1" viewBox="0 0 17 17" xmlns="http://www.w3.org/2000/svg" xmlns:cc="http://creativecommons.org/ns#" xmlns:dc="http://purl.org/dc/elements/1.1/" xmlns:rdf="http://www.w3.org/1999/02/22-rdf-syntax-ns#">
 <g transform="translate(-90 -60)">
  <path fill="red" d="m93 60c-1.662 0-3 1.338-3 3v11c0 1.662 1.338 3 3 3h11c1.662 0 3-1.338 3-3v-11c0-1.662-1.338-3-3-3zm3.5586 3.3828h1.7656c0.59655-9e-3 0.59655 0.89128 0 0.88281h-1.3242v1.1152l2.4727 2.0605 0.86132-2.2949h-0.24609c-0.59654 9e-3 -0.59654-0.88933 0-0.88086h1.7656c0.59657-9e-3 0.59657 0.88933 0 0.88086h-0.57618l-0.78515 2.0957c0.41277-0.20524 0.87084-0.33008 1.3613-0.33008 1.7004 0 3.0879 1.3875 3.0879 3.0879 0 1.7004-1.3875 3.0879-3.0879 3.0879-1.7004 0-3.0879-1.3875-3.0879-3.0879 0-0.59108 0.17651-1.139 0.4668-1.6094l-2.4883-2.0742-0.41016 1.0254c0.91985 0.53585 1.5488 1.521 1.5488 2.6582 0 1.7004-1.3875 3.0879-3.0879 3.0879-1.7004 0-3.0898-1.3875-3.0898-3.0879 0-1.7004 1.3895-3.0879 3.0898-3.0879 0.24979 0 0.48776 0.03735 0.7207 0.09375l0.60156-1.5039v-1.6777c0-0.24361 0.19779-0.44141 0.44141-0.44141zm-1.7637 4.4121c-1.2235 0-2.207 0.98162-2.207 2.2051 0 1.2235 0.98355 2.2051 2.207 2.2051 1.2235 0 2.2051-0.98161 2.2051-2.2051 0-0.77381-0.39378-1.4484-0.99219-1.8418l-0.80273 2.0059c-0.21706 0.54978-1.0415 0.22-0.82031-0.32812l0.80078-2.002c-0.12724-0.0226-0.2566-0.03906-0.39062-0.03906zm7.0586 0c-0.52261 0-0.99619 0.18562-1.373 0.48633l1.6543 1.3789c0.45077 0.37704-0.11198 1.0547-0.56446 0.67969l-1.6543-1.3789c-0.16606 0.31041-0.26953 0.66062-0.26953 1.0391 0 1.2235 0.98358 2.2051 2.207 2.2051 1.2235 0 2.2051-0.98161 2.2051-2.2051 0-1.2235-0.98151-2.2051-2.2051-2.2051z"/>
 </g>
</svg>
