<?xml version="1.0" encoding="UTF-8"?>
<svg width="64" height="64" version="1.1" viewBox="0 0 12.75 12.5" xmlns="http://www.w3.org/2000/svg" xmlns:cc="http://creativecommons.org/ns#" xmlns:dc="http://purl.org/dc/elements/1.1/" xmlns:rdf="http://www.w3.org/1999/02/22-rdf-syntax-ns#">
 <g transform="translate(-99 -228.75)">
  <path fill="#89a02cff" d="m110 228.75c-0.13851 0-0.25 0.1115-0.25 0.25v1.375l-0.87695-0.82031c-0.1012-0.0945-0.25896-0.0877-0.35352 0.0137-0.0946 0.1012-0.0895 0.25896 0.0117 0.35352l0.88672 0.82812h-0.91795c-0.13851 0-0.25 0.1115-0.25 0.25s0.11149 0.25 0.25 0.25h3c0.1385 0 0.25-0.1115 0.25-0.25s-0.1115-0.25-0.25-0.25h-0.91992l0.88867-0.82812c0.10121-0.0945 0.10629-0.25232 0.0117-0.35352-0.0946-0.1012-0.25231-0.10797-0.35352-0.0137l-0.87693 0.82031v-1.375c0-0.1385-0.1115-0.25-0.25-0.25zm-9.25 0.125c-0.13851 0-0.25 0.1115-0.25 0.25v1.375l-0.87695-0.81836c-0.1012-0.0946-0.25896-0.0898-0.35352 0.0117-0.09455 0.1012-0.08947 0.25896 0.01172 0.35352l0.88672 0.82812h-0.91797c-0.13851 0-0.25 0.1115-0.25 0.25s0.11149 0.25 0.25 0.25h3c0.1385 0 0.25-0.1115 0.25-0.25s-0.1115-0.25-0.25-0.25h-0.91992l0.88867-0.82812c0.10121-0.0946 0.10629-0.25232 0.0117-0.35352-0.0946-0.1012-0.25231-0.10602-0.35352-0.0117l-0.87693 0.81836v-1.375c0-0.1385-0.1115-0.25-0.25-0.25zm4.75 1.875c-0.13851 0-0.25 0.1115-0.25 0.25v1.375l-0.87695-0.82031c-0.1012-0.0945-0.25896-0.0877-0.35352 0.0137-0.0946 0.1012-0.0895 0.25896 0.0117 0.35352l0.88672 0.82812h-0.91795c-0.13851 0-0.25 0.1115-0.25 0.25s0.11149 0.25 0.25 0.25h3c0.1385 0 0.25-0.1115 0.25-0.25s-0.1115-0.25-0.25-0.25h-0.91992l0.88867-0.82812c0.10121-0.0945 0.10629-0.25232 0.0117-0.35352-0.0946-0.1012-0.25231-0.10797-0.35352-0.0137l-0.87693 0.82031v-1.375c0-0.1385-0.1115-0.25-0.25-0.25zm-4 3.5c-0.13851 0-0.25 0.1115-0.25 0.25v1.375l-0.87695-0.82031c-0.1012-0.0945-0.25896-0.0877-0.35352 0.0137-0.09456 0.1012-0.08947 0.25896 0.0117 0.35352l0.88672 0.82812h-0.91795c-0.1385 0-0.25 0.1115-0.25 0.25s0.1115 0.25 0.25 0.25h3c0.1385 0 0.25-0.1115 0.25-0.25s-0.1115-0.25-0.25-0.25h-0.91992l0.88867-0.82812c0.10121-0.0945 0.10629-0.25232 0.0117-0.35352-0.0946-0.1012-0.25231-0.10797-0.35352-0.0137l-0.87693 0.82031v-1.375c0-0.1385-0.1115-0.25-0.25-0.25zm2 4c-0.13851 0-0.25 0.1115-0.25 0.25v1.375l-0.87695-0.82031c-0.1012-0.0945-0.25896-0.0877-0.35352 0.0137-0.0946 0.1012-0.0895 0.25896 0.0117 0.35352l0.88672 0.82812h-0.91795c-0.13851 0-0.25 0.1115-0.25 0.25s0.11149 0.25 0.25 0.25h3c0.1385 0 0.25-0.1115 0.25-0.25s-0.1115-0.25-0.25-0.25h-0.91992l0.88867-0.82812c0.10121-0.0945 0.10629-0.25232 0.0117-0.35352-0.0946-0.1012-0.25231-0.10797-0.35352-0.0137l-0.87693 0.82031v-1.375c0-0.1385-0.1115-0.25-0.25-0.25zm6.5 0.5c-0.13851 0-0.25 0.1115-0.25 0.25v1.375l-0.87695-0.82031c-0.1012-0.0945-0.25896-0.0877-0.35352 0.0137-0.0946 0.1012-0.0895 0.25896 0.0117 0.35352l0.88672 0.82812h-0.91795c-0.13851 0-0.25 0.1115-0.25 0.25s0.11149 0.25 0.25 0.25h3c0.1385 0 0.25-0.1115 0.25-0.25s-0.1115-0.25-0.25-0.25h-0.91992l0.88867-0.82812c0.10121-0.0945 0.10629-0.25232 0.0117-0.35352-0.0946-0.1012-0.25231-0.10797-0.35352-0.0137l-0.87693 0.82031v-1.375c0-0.1385-0.1115-0.25-0.25-0.25z"/>
 </g>
</svg>
