<?xml version="1.0" encoding="UTF-8"?>
<svg width="30" height="14" version="1.1" viewBox="0 0 15 7" xmlns="http://www.w3.org/2000/svg" xmlns:cc="http://creativecommons.org/ns#" xmlns:dc="http://purl.org/dc/elements/1.1/" xmlns:rdf="http://www.w3.org/1999/02/22-rdf-syntax-ns#">
 <g transform="translate(-31 -35)">
  <path d="m34.5 35c-0.277 0-0.5 0.223-0.5 0.5s0.223 0.5 0.5 0.5h8c0.277 0 0.5-0.223 0.5-0.5s-0.223-0.5-0.5-0.5zm-1.25 2.25c-0.4155 0-0.75 0.3345-0.75 0.75s0.3345 0.75 0.75 0.75h10.5c0.4155 0 0.75-0.3345 0.75-0.75s-0.3345-0.75-0.75-0.75zm-1.25 2.75c-0.55398 0-1 0.44602-1 1 0 0.55397 0.44602 1 1 1h13c0.55397 0 1-0.44603 1-1 0-0.55398-0.44603-1-1-1z"/>
 </g>
</svg>
