<?xml version="1.0" encoding="UTF-8"?>
<svg width="30" height="16" version="1.1" viewBox="0 0 15 8" xmlns="http://www.w3.org/2000/svg" xmlns:cc="http://creativecommons.org/ns#" xmlns:dc="http://purl.org/dc/elements/1.1/" xmlns:rdf="http://www.w3.org/1999/02/22-rdf-syntax-ns#">
 <g transform="translate(-151 -35)">
  <path d="m158.42 35c-1.3766-0.0347-2.5107 0.94169-3.7031 1.6797-2.3203 1.4356-3.7205 3.4491-3.7207 6.3203h1.1543c3e-3 -2.4317 1.187-4.0378 3.1543-5.2539 1.493-0.84406 2.0495-1.3619 3.125-1.4043 0.8781-0.0347 1.6472 0.42634 3.0176 1.3281 1.9673 1.2162 3.4377 2.8984 3.4414 5.3301h1.1074c-2.4e-4 -2.8712-1.6875-4.9609-4.0078-6.3965-1.0878-0.67329-2.3125-1.5694-3.5684-1.6016zm-0.0254 3.002c-0.64247-0.0346-1.3836 0.32153-2.4531 1.2227-1.3062 1.1006-1.9452 1.8295-1.9453 3.7754h4.5l4.5-2e-3c-3e-5 -1.9459-0.99415-2.6409-2.291-3.7539-0.92624-0.79503-1.7254-1.2108-2.3105-1.2422z"/>
 </g>
</svg>
