<?xml version="1.0" encoding="UTF-8"?>
<svg width="30" height="26" version="1.1" viewBox="0 0 15 13" xmlns="http://www.w3.org/2000/svg" xmlns:cc="http://creativecommons.org/ns#" xmlns:dc="http://purl.org/dc/elements/1.1/" xmlns:rdf="http://www.w3.org/1999/02/22-rdf-syntax-ns#">
 <g transform="translate(-1 -32)">
  <path d="m15.271 32a0.69038 0.73341 0 0 0-0.68945 0.5957c-0.76574 3.9601-0.75207 8.0195 0.04883 11.783a0.69038 0.73341 0 1 0 1.3457-0.32226c-0.7545-3.546-0.77059-7.4055-0.04297-11.168a0.69038 0.73341 0 0 0-0.52539-0.87109 0.69038 0.73341 0 0 0-0.13672-0.017578zm-13.389 0.01758c-0.48934 0-0.88281 0.44677-0.88281 1v5.9902c0 0.55323 0.39347 1 0.88281 1h10.064c0.55157 0 0.99609-0.44677 0.99609-1v-1.9961c0-0.55323-0.44452-1-0.99609-1h-2.9844v-2.9941c0-0.55323-0.39543-1-0.88477-1h-5.9707zm1.1074 1.998h3.9805v1.9961h-3.9805zm0 6.9902c-1.1031-2e-6 -1.9902 0.89154-1.9902 1.998 0 1.1065 0.88712 1.9961 1.9902 1.9961h7.9609c1.1031 0 1.9922-0.88963 1.9922-1.9961 0-1.1065-0.88907-1.998-1.9922-1.998z"/>
 </g>
</svg>
