<?xml version="1.0" encoding="UTF-8" standalone="no"?>
<svg
   version="1.1"
   width="32"
   height="32"
   id="svg3"
   xmlns="http://www.w3.org/2000/svg"
   xmlns:svg="http://www.w3.org/2000/svg"
   viewBox="0 0 18 18">
   <g transform="translate(0 0)">
      <path fill="red" d="m 8.00001,2 c -0.554,0 -1,0.446 -1,1 v 3 h -3 c -0.554,0 -1,0.446 -1,1 v 3 c 0,0.554 0.474429,1.1752 1,1 h 3 v 3 c 0,0.554 0.446,1 1,1 h 3 c 0.554,0 1,-0.446 1,-1 v -3 h 3 c 0.554,0 1,-0.446 1,-1 V 7 c 0,-0.554 -0.446,-1 -1,-1 h -3 V 3 c 0,-0.554 -0.446,-1 -1,-1 z"/>
   </g>
</svg>
