<?xml version="1.0" encoding="UTF-8"?>
<svg width="24" height="26" version="1.1" viewBox="0 0 14 15" xmlns="http://www.w3.org/2000/svg" xmlns:cc="http://creativecommons.org/ns#" xmlns:dc="http://purl.org/dc/elements/1.1/" xmlns:rdf="http://www.w3.org/1999/02/22-rdf-syntax-ns#">
 <g transform="translate(-151 -848.35)">
  <path fill="#008000ff" d="m158 848.35a2.8046 2.7504 0 0 0-2.8045 2.7387 2.8046 2.7504 5.7557e-4 0 0-3.8204 1.0118 2.8046 2.7504 5.7557e-4 0 0 1.0179 3.7506 2.7504 2.8046 89.999 0 0-1.0179 3.7506 2.7504 2.8046 89.999 0 0 3.8204 1.0119 2.8046 2.7504 0 0 0 2.8045 2.7387 2.8046 2.7504 0 0 0 2.8046-2.7387 2.8046 2.7504 0.0010088 0 0 3.8204-1.0119 2.8046 2.7504 0.0010088 0 0-1.0178-3.7506 2.7504 2.8046 89.999 0 0 1.0178-3.7506 2.7504 2.8046 89.999 0 0-3.8204-1.0118 2.8046 2.7504 0 0 0-2.8046-2.7387zm0 4.5007a3.0595 3.0005 0 0 1 3.0595 3.0005 3.0595 3.0005 0 0 1-3.0595 3.0005 3.0595 3.0005 0 0 1-3.0595-3.0005 3.0595 3.0005 0 0 1 3.0595-3.0005z"/>
 </g>
</svg>
