<?xml version="1.0" encoding="UTF-8"?>
<svg width="20" height="30" version="1.1" viewBox="0 0 10 15" xmlns="http://www.w3.org/2000/svg" xmlns:cc="http://creativecommons.org/ns#" xmlns:dc="http://purl.org/dc/elements/1.1/" xmlns:rdf="http://www.w3.org/1999/02/22-rdf-syntax-ns#">
 <g transform="translate(-153 -61)">
  <path fill="#734a08" d="m157.5 61c-0.27672 0-0.50069 0.18693-0.5 0.41797l0.0137 4.5645h-1l-0.0137-4.5098c-7.4e-4 -0.24685-0.22299-0.44531-0.5-0.44531s-0.5007 0.19845-0.5 0.44531l0.0117 4.5098h-0.99805l-0.01365-4.4707c-7.5e-4 -0.2589-0.22299-0.4668-0.5-0.4668-0.27703 0-0.50063 0.20789-0.5 0.4668l0.0137 5.2656c6e-5 0.0242 0.0101 0.04311 0.0137 0.06641-6e-3 0.0352-0.0137 0.07106-0.0137 0.10742v0.09961c0 0.52522 0.55935 0.87634 1.248 0.94922h0.23633l-0.0137 7.002c-0.00101 0.55298 0.44103 0.99804 0.98632 0.99804h0.0312c0.54529 0 0.98438-0.44506 0.98438-0.99805l0.01372-7.002h0.26367c0.6546 0 1.1798-0.38033 1.2363-0.86523 2e-3 -0.0152 0.0117-0.02727 0.0117-0.04297v-0.14063l-0.0117-5.5332c-5.4e-4 -0.23105-0.22326-0.41797-0.5-0.41797zm3.9609 0c-0.80934 0-1.4609 0.89198-1.4609 2l0.0391 4.3574v2.625c0 1e-5 0.55543 0 1 0l-0.0391 5.0176c-4e-3 0.55398 0.44586 1 1 1 0.55412 0 1-0.446 1-1v-12c0-1.108-0.65158-2-1.4609-2z"/>
 </g>
</svg>
