<?xml version="1.0" encoding="UTF-8"?>
<svg width="64" height="62" version="1.1" viewBox="0 0 16 15.5" xmlns="http://www.w3.org/2000/svg" xmlns:cc="http://creativecommons.org/ns#" xmlns:dc="http://purl.org/dc/elements/1.1/" xmlns:rdf="http://www.w3.org/1999/02/22-rdf-syntax-ns#">
 <g transform="translate(-196 -180)">
  <path fill="#008000ff" d="m197.74 180c-0.0658 1.8e-4 -0.13138 0.0259-0.18164 0.0762l-0.97266 0.97461c-0.10051 0.10071-0.10101 0.26125 0 0.36133 0.10114 0.10009 0.26472 0.1006 0.36524 0l0.55078-0.55078v0.77929l-1.4219 1.4238c-0.0984 0.0985-0.0969 0.25753 2e-3 0.35547 0.099 0.0979 0.25712 0.0965 0.35547-2e-3l1.0645-1.0664v2.6485h0.49218v-2.668l1.0801 1.082c0.0983 0.0984 0.25647 0.0999 0.35547 2e-3 0.0989-0.0979 0.0984-0.25697 0-0.35547l-1.4356-1.4395v-0.76367l0.55274 0.55469c0.10052 0.1006 0.26214 0.10009 0.36328 0 0.10102-0.10008 0.10247-0.26062 2e-3 -0.36133l-0.97265-0.97461c-0.0529-0.053-0.12216-0.0749-0.19141-0.0723-3e-3 -9e-5 -5e-3 -4e-3 -8e-3 -4e-3zm12.5 1c-0.0658 1.8e-4 -0.13139 0.0259-0.18164 0.0762l-0.97266 0.97461c-0.10052 0.10071-0.10101 0.26125 0 0.36133 0.10114 0.10009 0.26472 0.1006 0.36524 0l0.55078-0.55078v0.77929l-1.4219 1.4238c-0.0984 0.0985-0.0969 0.25753 2e-3 0.35547 0.099 0.0979 0.25711 0.0965 0.35547-2e-3l1.0645-1.0664v2.6485h0.49218v-2.668l1.0801 1.082c0.0984 0.0984 0.25647 0.0999 0.35547 2e-3 0.0989-0.0979 0.0984-0.25697 0-0.35547l-1.4356-1.4395v-0.76367l0.55274 0.55469c0.10052 0.1006 0.26213 0.10009 0.36328 0 0.10102-0.10008 0.10247-0.26062 2e-3 -0.36133l-0.97265-0.97461c-0.0529-0.053-0.12216-0.0749-0.19141-0.0723-3e-3 -9e-5 -5e-3 -4e-3 -8e-3 -4e-3zm-5.5 4.5c-0.0658 1.8e-4 -0.13139 0.0259-0.18164 0.0762l-0.97266 0.97461c-0.10052 0.10071-0.10101 0.26125 0 0.36133 0.10114 0.10009 0.26472 0.1006 0.36524 0l0.55078-0.55078v0.77929l-1.4219 1.4238c-0.0984 0.0985-0.0969 0.25753 2e-3 0.35547 0.099 0.0979 0.25711 0.0965 0.35547-2e-3l1.0645-1.0664v2.6485h0.49218v-2.668l1.0801 1.082c0.0984 0.0984 0.25647 0.0999 0.35547 2e-3 0.0989-0.0979 0.0984-0.25697 0-0.35547l-1.4356-1.4395v-0.76367l0.55274 0.55469c0.10052 0.1006 0.26213 0.10009 0.36328 0 0.10102-0.10008 0.10247-0.26062 2e-3 -0.36133l-0.97265-0.97461c-0.0529-0.053-0.12216-0.0749-0.19141-0.0723-3e-3 -9e-5 -5e-3 -4e-3 -8e-3 -4e-3zm-5.5 2.5c-0.0658 1.8e-4 -0.13138 0.0259-0.18164 0.0762l-0.97266 0.97461c-0.10051 0.10071-0.10101 0.26125 0 0.36133 0.10114 0.10009 0.26472 0.1006 0.36524 0l0.55078-0.55078v0.77929l-1.4219 1.4238c-0.0984 0.0985-0.0969 0.25753 2e-3 0.35547 0.099 0.0979 0.25712 0.0965 0.35547-2e-3l1.0645-1.0664v2.6485h0.49218v-2.668l1.0801 1.082c0.0983 0.0984 0.25647 0.0999 0.35547 2e-3 0.0989-0.0979 0.0984-0.25697 0-0.35547l-1.4356-1.4395v-0.76367l0.55274 0.55469c0.10052 0.1006 0.26214 0.10009 0.36328 0 0.10102-0.10008 0.10247-0.26062 2e-3 -0.36133l-0.97265-0.97461c-0.0529-0.053-0.12216-0.0749-0.19141-0.0723-3e-3 -9e-5 -5e-3 -4e-3 -8e-3 -4e-3zm8.4961 2.5c-0.0658 1.8e-4 -0.13138 0.0259-0.18164 0.0762l-0.97266 0.97461c-0.10051 0.10071-0.0991 0.26125 2e-3 0.36133 0.10114 0.10009 0.26276 0.1006 0.36328 0l0.55273-0.55273v0.77929l-1.4219 1.4258c-0.0984 0.0985-0.0989 0.25753 0 0.35547 0.099 0.0979 0.25711 0.0965 0.35547-2e-3l1.0664-1.0684v2.6504h0.49219v-2.666l1.0781 1.0801c0.0984 0.0984 0.25647 0.0999 0.35547 2e-3 0.0989-0.0979 0.10035-0.25697 2e-3 -0.35547l-1.4356-1.4375v-0.76367l0.55078 0.55273c0.10052 0.1006 0.26409 0.10009 0.36524 0 0.10102-0.10008 0.10052-0.26062 0-0.36133l-0.97266-0.97461c-0.0525-0.0525-0.12076-0.0744-0.18945-0.0723-4e-3 -1.4e-4 -6e-3 -4e-3 -0.01-4e-3z"/>
 </g>
</svg>
