<?xml version="1.0" encoding="UTF-8"?>
<svg width="20" height="30" version="1.1" viewBox="0 0 10 15" xmlns="http://www.w3.org/2000/svg" xmlns:cc="http://creativecommons.org/ns#" xmlns:dc="http://purl.org/dc/elements/1.1/" xmlns:rdf="http://www.w3.org/1999/02/22-rdf-syntax-ns#">
 <g transform="translate(-93.007 -758.36)">
  <path fill="#734a08" d="m97.233 758.36c-0.67472 0-1.2281 0.58011-1.2281 1.2925v0.70677c-1.0712 1.5e-4 -2.0611 0.57171-2.5967 1.4994-0.5357 0.92786-0.5357 2.071 0 2.9989 0.53563 0.92773 1.5254 1.4993 2.5967 1.4995v6.9974l6.9892 5e-3c-0.0115-4.7877 0.01-9.53 5e-3 -13.647 5e-5 -0.71236-0.57903-1.3534-1.2557-1.3534zm0.0918 1.0035h4.3313c0.18116 0 0.32215 0.1618 0.32215 0.36705v3.2781c0 0.20525-0.14099 0.36706-0.32215 0.36706h-4.3313c-0.17928 0-0.32019-0.16181-0.32019-0.36706v-3.2781c0-0.20525 0.14091-0.36705 0.32019-0.36705zm-1.3198 1.9719v3.9986c-0.70742-6e-3 -1.3586-0.38694-1.7123-0.99964-0.35713-0.61857-0.35713-1.3807 0-1.9993 0.35369-0.6127 1.0048-0.99284 1.7123-0.99964z"/>
 </g>
</svg>
