<?xml version="1.0" encoding="UTF-8"?>
<svg width="26" height="17" version="1.1" viewBox="0 0 15 10" xmlns="http://www.w3.org/2000/svg" xmlns:cc="http://creativecommons.org/ns#" xmlns:dc="http://purl.org/dc/elements/1.1/" xmlns:rdf="http://www.w3.org/1999/02/22-rdf-syntax-ns#">
 <g transform="translate(-31 -94)">
  <path fill="#734a08ff" d="m31.51 94c-0.24684-5e-3 -0.50984 0.23886-0.50977 0.53906l2e-3 6.959v2.002c0 0.30019 0.2006 0.5 0.5 0.5 0.29935 0 0.498-0.19981 0.498-0.5v-1.502h12.975v1.502c0 0.30019 0.19865 0.5 0.49805 0.5 0.2994 0 0.5-0.19981 0.5-0.5v-2.002c0-0.30019-0.2006-0.5-0.5-0.5h-13.473l-2e-3 -6.4277c-3.8e-5 -0.30019-0.2385-0.56455-0.48823-0.57031zm2.9844 0.99414c-0.79839 0-1.4961 0.70143-1.4961 1.502s0.6977 1.5 1.4961 1.5c0.79838 0 1.498-0.69948 1.498-1.5s-0.69967-1.502-1.498-1.502zm3.8066 1.0098c-1.497 0-1.7832 1.5488-1.7832 1.5488l-0.01367 1.459h-2.9941c-0.2994 0-0.53529 0.26202-0.5332 0.50781 0.0021 0.23561 0.29546 0.47852 0.51953 0.47852h12.475l0.029295-1.4434c0.04812-2.5012-2.2109-2.5508-2.2109-2.5508z"/>
 </g>
</svg>
