<?xml version="1.0" encoding="UTF-8"?>
<svg width="64" height="64" version="1.1" viewBox="0 0 16 16" xmlns="http://www.w3.org/2000/svg" xmlns:cc="http://creativecommons.org/ns#" xmlns:dc="http://purl.org/dc/elements/1.1/" xmlns:rdf="http://www.w3.org/1999/02/22-rdf-syntax-ns#">
 <rect width="16" height="16" fill="#d5e5ffff"/>
 <g transform="translate(-193 -895.85)">
  <path fill="#aaccffff" d="m193 895.86v0.5l3.0156-0.0156v-0.5zm5 0v0.5l6.9961 5e-5v-0.5zm9.0469 0v0.5h1.9531v-0.5zm-12.047 2v0.5l6.0078 8e-3v-0.5zm8 0v0.5h6v-0.5zm-10 2v0.5l3.0156-0.0156v-0.5zm5 0v0.5l6.9961 5e-5v-0.5zm9.0469 0v0.5h1.9531v-0.5zm-12.047 2v0.5l6.0078 8e-3v-0.5zm8 0v0.5h6v-0.5zm-10 2v0.5l3.0156-0.0156v-0.5zm5 0v0.5l6.9961 5e-5v-0.5zm9.0469 0v0.5h1.9531v-0.5zm-12.047 2v0.5l6.0078 8e-3v-0.5zm8 0v0.5h6v-0.5zm-10 2v0.5l3.0156-0.0156v-0.5zm5 0v0.5l6.9961 5e-5v-0.5zm9.0469 0v0.5h1.9531v-0.5zm-12.047 2v0.5l6.0078 8e-3v-0.5zm8 0v0.5h6v-0.5z" opacity=".936"/>
 </g>
</svg>
