<?xml version="1.0" encoding="UTF-8"?>
<svg width="18" height="30" version="1.1" viewBox="0 0 9 15" xmlns="http://www.w3.org/2000/svg" xmlns:cc="http://creativecommons.org/ns#" xmlns:dc="http://purl.org/dc/elements/1.1/" xmlns:rdf="http://www.w3.org/1999/02/22-rdf-syntax-ns#">
 <g transform="translate(-124 -818.36)">
  <path fill="#666666ff" d="m125.46 818.36c-0.25252 0-0.45508 0.20255-0.45508 0.45506v0.0899c0 0.25251 0.20256 0.45508 0.45508 0.45508h0.74413l0.80078 2c-2 0-3 2.0221-3 3.9844v0.0313c0 2.9843 2 3.9843 2.75 6.9843h-0.32617c-0.25251 0-0.45507 0.2026-0.45507 0.4551v0.09c0 0.2526 0.20256 0.4551 0.45507 0.4551h3.5762l0.54491-0.016c0.25242-0.01 0.45509-0.2026 0.45509-0.4551v-0.09c0-0.2525-0.20292-0.4684-0.45509-0.4551l-0.29492 0.016c0.75001-2.9999 2.75-3.9999 2.75-6.9843v-0.0313c0-1.9623-0.99999-3.9844-3-3.9844l0.80077-2h0.74415c0.25251 0 0.45508-0.20257 0.45508-0.45508v-0.0899c0-0.25251-0.20257-0.45506-0.45508-0.45506z"/>
 </g>
 </svg>
