<?xml version="1.0" encoding="UTF-8"?>
<svg width="64" height="64" version="1.1" viewBox="0 0 16 16" xmlns="http://www.w3.org/2000/svg" xmlns:cc="http://creativecommons.org/ns#" xmlns:dc="http://purl.org/dc/elements/1.1/" xmlns:rdf="http://www.w3.org/1999/02/22-rdf-syntax-ns#">
 <rect width="16" height="16" fill="#dde9afff"/>
 <g transform="translate(-49.001 -227)">
  <path fill="#abc837ff" d="m50.676 227c-0.11586 5e-3 -0.23481 0.0218-0.35156 0.0508-0.93268 0.23255-1.5041 1.1839-1.2715 2.1192 0.1737 0.69857 0.7479 1.1948 1.416 1.3047v1.5234h0.53125v-1.5273c0.05667-8e-3 0.11324-0.0112 0.16992-0.0254 0.93386-0.2329 1.5081-1.1852 1.2754-2.1211-0.17443-0.7015-0.7547-1.1981-1.4277-1.3047-0.11218-0.0178-0.22593-0.0245-0.3418-0.0195zm8 0c-0.11586 5e-3 -0.23481 0.0218-0.35156 0.0508-0.93268 0.23255-1.5041 1.1839-1.2715 2.1192 0.1737 0.69857 0.7479 1.1948 1.416 1.3047v1.5234h0.53125v-1.5273c0.05667-8e-3 0.11324-0.0112 0.16992-0.0254 0.93386-0.2329 1.5081-1.1852 1.2754-2.1211-0.17443-0.7015-0.7547-1.1981-1.4277-1.3047-0.11218-0.0178-0.22593-0.0245-0.3418-0.0195zm-7.9785 0.50977c0.57593-0.0255 1.1049 0.35401 1.25 0.9375 0.16604 0.66765-0.23469 1.3359-0.90039 1.502-0.66381 0.1656-1.332-0.23449-1.498-0.90234-0.16582-0.66675 0.23679-1.3346 0.90039-1.5 0.08319-0.0208 0.16577-0.0335 0.24805-0.0371zm8 0c0.57593-0.0255 1.1049 0.35401 1.25 0.9375 0.16604 0.66765-0.23469 1.3359-0.90039 1.502-0.66381 0.1656-1.332-0.23449-1.498-0.90234-0.16582-0.66675 0.23679-1.3346 0.90039-1.5 0.08319-0.0208 0.16577-0.0335 0.24805-0.0371zm-3.5195 7.4902c-0.11586 5e-3 -0.23286 0.0218-0.34961 0.0508-0.93268 0.23255-1.506 1.1839-1.2734 2.1192 0.17386 0.6992 0.74907 1.1954 1.418 1.3047v1.5234h0.5293v-1.5273c0.05698-8e-3 0.11292-0.0112 0.16992-0.0254 0.93386-0.2329 1.5081-1.1852 1.2754-2.1211-0.17443-0.7015-0.7547-1.1981-1.4277-1.3047-0.11218-0.0178-0.22593-0.0245-0.3418-0.0195zm8 0c-0.11586 5e-3 -0.23286 0.0218-0.34961 0.0508-0.93268 0.23255-1.506 1.1839-1.2734 2.1192 0.17386 0.6992 0.74907 1.1954 1.418 1.3047v1.5234h0.5293v-1.5273c0.05698-8e-3 0.11292-0.0112 0.16992-0.0254 0.93386-0.2329 1.5081-1.1852 1.2754-2.1211-0.17443-0.7015-0.7547-1.1981-1.4277-1.3047-0.11218-0.0178-0.22593-0.0245-0.3418-0.0195zm-7.9766 0.50977c0.57593-0.0255 1.1049 0.35401 1.25 0.9375 0.16604 0.66765-0.23664 1.3359-0.90234 1.502-0.66381 0.1656-1.332-0.23449-1.498-0.90234-0.16582-0.66675 0.23679-1.3346 0.90039-1.5 0.08319-0.0208 0.16772-0.0335 0.25-0.0371zm8 0c0.57593-0.0255 1.1049 0.35401 1.25 0.9375 0.16604 0.66765-0.23664 1.3359-0.90234 1.502-0.66381 0.1656-1.332-0.23449-1.498-0.90234-0.16582-0.66675 0.23679-1.3346 0.90039-1.5 0.08319-0.0208 0.16772-0.0335 0.25-0.0371z" color="#000000" color-rendering="auto" dominant-baseline="auto" image-rendering="auto" shape-rendering="auto" solid-color="#000000" style="font-feature-settings:normal;font-variant-alternates:normal;font-variant-caps:normal;font-variant-ligatures:normal;font-variant-numeric:normal;font-variant-position:normal;isolation:auto;mix-blend-mode:normal;shape-padding:0;text-decoration-color:#000000;text-decoration-line:none;text-decoration-style:solid;text-indent:0;text-orientation:mixed;text-transform:none;white-space:normal"/>
 </g>
</svg>
