<?xml version="1.0" encoding="UTF-8"?>
<svg width="26" height="22" version="1.1" viewBox="0 0 15 13" xmlns="http://www.w3.org/2000/svg" xmlns:cc="http://creativecommons.org/ns#" xmlns:dc="http://purl.org/dc/elements/1.1/" xmlns:rdf="http://www.w3.org/1999/02/22-rdf-syntax-ns#">
 <g transform="translate(-181 -729.36)">
  <path fill="#734a08ff" d="m183.99 729.36c-0.55129 0-0.99415 0.44514-0.99415 0.99683 0 0.5517 0.44285 0.9949 0.99415 0.9949h0.79494l-1.5313 4.0128h-1.2637c-0.55128 0-0.99415 0.44318-0.99415 0.99489 0 0.55172 0.44287 0.99685 0.99415 0.99685h0.50196l-1.4141 3.704c-0.18324 0.47993 0.076 1.0223 0.58203 1.2158l0.041 0.0157c0.50596 0.19346 1.0609-0.038 1.2442-0.51798l1.6875-4.4174h7.7032l1.6875 4.4174c0.18324 0.47994 0.73819 0.71144 1.2442 0.51797l0.041-0.0157c0.50596-0.19346 0.7672-0.73583 0.58399-1.2158l-1.4141-3.704h0.52344c0.5513 0 0.99415-0.44513 0.99415-0.99685 0-0.55171-0.44285-0.99489-0.99415-0.99489h-1.2852l-1.5313-4.0128h0.81641c0.55129 0 0.99416-0.4432 0.99416-0.9949 0-0.55169-0.44287-0.99683-0.99416-0.99683zm2.9278 1.9917h3.1328c3e-3 0.01 4.6e-4 0.0185 3e-3 0.0273l1.5215 3.9854h-6.1836l1.5215-3.9854c3e-3 -0.01 8e-4 -0.0184 3e-3 -0.0273z"/>
 </g>
</svg>
