<?xml version="1.0" encoding="UTF-8"?>
<svg width="26" height="26" version="1.1" viewBox="0 0 15 15" xmlns="http://www.w3.org/2000/svg" xmlns:cc="http://creativecommons.org/ns#" xmlns:dc="http://purl.org/dc/elements/1.1/" xmlns:rdf="http://www.w3.org/1999/02/22-rdf-syntax-ns#">
 <g transform="translate(-151 -668.36)">
  <path d="m161.97 668.36 0.0249 1.567 0.78166 0.79383-4.3678 4.3464-4.1887-4.0068c0.74845-0.6144 1.5578-0.99932 2.4697-1.4577l-0.5322-1.235c-1.3032 0.50929-2.4296 1.4647-3.2846 2.3546-1.2855 1.4177-1.9084 3.5845-1.819 5.2248 0 0 0.67059-1.9819 2.2369-3.9299l4.1825 3.98-6.2845 6.2536c-0.25062 0.24933-0.24449 0.64384 0.0146 0.88454l2e-3 2e-3c0.25903 0.24071 0.66828 0.2349 0.91888-0.0145l6.2658-6.233 6.4903 6.3093c0.22247 0.21633 0.65193 0.21637 0.86274-0.0123 0.21077-0.22874 0.31548-0.64708 0.0936-0.86392l-6.5132-6.3629 4.4073-4.3856 0.61327 0.54021c0.23297 0.20537 0.59033 0.25072 0.80869 0.0288l0.69852-0.70928c0.21836-0.2216 0.1972-0.59148-0.0208-0.81237l-1.4532-1.4722-0.79413-0.78764c0.58775 0.58413-0.0107 0-0.0107 0z"/>
 </g>
</svg>
