<?xml version="1.0" encoding="UTF-8" standalone="no"?>
<svg width="64" height="64" version="1.1" viewBox="0 0 32 32" xmlns="http://www.w3.org/2000/svg" xmlns:svg="http://www.w3.org/2000/svg">
  <path fill="red" d="m 32,0 -2,1.9999999 -2,2 -1.999999,2.0000006 -2,1.9999988 -2,2.0000002 L 20.000001,12 18,14 16,16 14.000001,18 12,19.999999 l -1.999999,2 -2.0000003,2 -2.0000012,2 L 3.9999996,28 2.0000001,30 0,32 v -1 l 1.0000001,-1 1,-1 L 3,28 l 0.9999996,-1 1,-1.000001 0.9999999,-1 1.0000013,-1 0.9999999,-1 0.9999999,-1 1.0000004,-1 0.999999,-1 L 12,19 13,18 14.000001,17 15,16 l 1,-1 1,-1 1,-1 1,-1 1.000001,-1 1,-1.0000005 1,-1.0000001 1,-1.0000001 1,-1.0000001 1,-0.9999987 1,-1.0000001 L 27,3.9999999 28,3 29,1.9999999 30,0.99999999 31,0 Z m -2,0 -2,1.9999999 -1.999999,2 -2,2.0000006 -2,1.9999988 -2,2.0000002 L 18,12 16,14 14.000001,16 12,18 l -1.999999,1.999999 -2.0000003,2 -2.0000012,2 -1.9999999,2 L 2.0000001,28 0,30 v -1 l 1.0000001,-1 1,-1 L 3,25.999999 l 0.9999996,-1 1,-1 0.9999999,-1 1.0000013,-1 0.9999999,-1 0.9999999,-1 L 10.000001,19 11,18 12,17 13,16 14.000001,15 15,14 l 1,-1 1,-1 1,-1 1,-1.0000005 1.000001,-1.0000001 1,-1.0000001 1,-1.0000001 1,-0.9999987 1,-1.0000001 1,-1.0000005 L 26.000001,3 27,1.9999999 28,0.99999999 29,0 Z m -2,0 -1.999999,1.9999999 -2,2 -2,2.0000006 -2,1.9999988 L 18,9.9999995 16,12 14.000001,14 12,16 l -1.999999,2 -2.0000003,1.999999 -2.0000012,2 -1.9999999,2 -1.9999995,2 L 0,28 v -1 l 1.0000001,-1.000001 1,-1 0.9999999,-1 0.9999996,-1 1,-1 0.9999999,-1 1.0000013,-1 L 8.0000007,19 9.0000006,18 10.000001,17 11,16 12,15 13,14 14.000001,13 15,12 l 1,-1 1,-1.0000005 1,-1.0000001 1,-1.0000001 1.000001,-1.0000001 1,-0.9999987 1,-1.0000001 1,-1.0000005 1,-0.9999999 1,-1.0000001 1,-0.99999991 L 27,0 Z m -1.999999,0 -2,1.9999999 -2,2 -2,2.0000006 L 18,7.9999993 16,9.9999995 14.000001,12 12,14 l -1.999999,2 -2.0000003,2 -2.0000012,1.999999 -1.9999999,2 -1.9999995,2 -2.0000001,2 v -1 l 1.0000001,-1 1,-1 0.9999999,-1 0.9999996,-1 1,-1 L 5.9999995,19 7.0000008,18 8.0000007,17 9.0000006,16 10.000001,15 11,14 12,13 13,12 14.000001,11 15,9.9999995 l 1,-1.0000001 1,-1.0000001 1,-1.0000001 1,-0.9999987 1.000001,-1.0000001 1,-1.0000005 1,-0.9999999 1,-1.0000001 1,-0.99999991 1,-0.99999999 z m -2,0 -2,1.9999999 -2,2 L 18,6.0000005 16,7.9999993 14.000001,9.9999995 12,12 l -1.999999,2 -2.0000003,2 -2.0000012,2 -1.9999999,1.999999 -1.9999995,2 -2.0000001,2 v -1 l 1.0000001,-1 1,-1 L 3,19.999999 3.9999996,19 l 1,-1 L 5.9999995,17 7.0000008,16 8.0000007,15 9.0000006,14 10.000001,13 11,12 12,11 13,9.9999995 14.000001,8.9999994 15,7.9999993 16,6.9999992 17,6.0000005 18,5.0000004 19,3.9999999 20.000001,3 l 1,-1.0000001 1,-0.99999991 1,-0.99999999 z m -2,0 -2,1.9999999 -2.000001,2 L 16,6.0000005 14.000001,7.9999993 12,9.9999995 10.000001,12 8.0000007,14 5.9999995,16 3.9999996,18 2.0000001,19.999999 0,21.999999 v -1 l 1.0000001,-1 1,-0.999999 L 3,18 l 0.9999996,-1 1,-1 L 5.9999995,15 7.0000008,14 8.0000007,13 9.0000006,12 10.000001,11 11,9.9999995 12,8.9999994 13,7.9999993 14.000001,6.9999992 15,6.0000005 16,5.0000004 17,3.9999999 18,3 19,1.9999999 20.000001,0.99999999 21.000001,0 Z m -2,0 L 18,1.9999999 l -2,2 L 14.000001,6.0000005 12,7.9999993 10.000001,9.9999995 8.0000007,12 5.9999995,14 3.9999996,16 2.0000001,18 0,19.999999 V 19 l 1.0000001,-1 1,-1 L 3,16 l 0.9999996,-1 1,-1 L 5.9999995,13 7.0000008,12 8.0000007,11 9.0000006,9.9999995 10.000001,8.9999994 11,7.9999993 12,6.9999992 13,6.0000005 14.000001,5.0000004 15,3.9999999 16,3 17,1.9999999 18,0.99999999 19,0 Z M 18,0 l -2,1.9999999 -1.999999,2 L 12,6.0000005 10.000001,7.9999993 8.0000007,9.9999995 5.9999995,12 3.9999996,14 2.0000001,16 0,18 v -1 l 1.0000001,-1 1,-1 L 3,14 l 0.9999996,-1 1,-1 L 5.9999995,11 7.0000008,9.9999995 8.0000007,8.9999994 9.0000006,7.9999993 10.000001,6.9999992 11,6.0000005 12,5.0000004 13,3.9999999 14.000001,3 15,1.9999999 16,0.99999999 17,0 Z M 16,0 14.000001,1.9999999 12,3.9999999 10.000001,6.0000005 8.0000007,7.9999993 5.9999995,9.9999995 3.9999996,12 2.0000001,14 0,16 v -1 l 1.0000001,-1 1,-1 L 3,12 l 0.9999996,-1 1,-1.0000005 L 5.9999995,8.9999994 7.0000008,7.9999993 8.0000007,6.9999992 9.0000006,6.0000005 10.000001,5.0000004 11,3.9999999 12,3 13,1.9999999 14.000001,0.99999999 15,0 Z M 14.000001,0 12,1.9999999 l -1.999999,2 L 8.0000007,6.0000005 5.9999995,7.9999993 3.9999996,9.9999995 2.0000001,12 0,14 v -1 l 1.0000001,-1 1,-1 L 3,9.9999995 3.9999996,8.9999994 l 1,-1.0000001 L 5.9999995,6.9999992 7.0000008,6.0000005 8.0000007,5.0000004 9.0000006,3.9999999 10.000001,3 11,1.9999999 12,0.99999999 13,0 Z M 12,0 l -1.999999,1.9999999 -2.0000003,2 L 5.9999995,6.0000005 3.9999996,7.9999993 2.0000001,9.9999995 0,12 v -1 l 1.0000001,-1.0000005 1,-1.0000001 L 3,7.9999993 3.9999996,6.9999992 l 1,-0.9999987 L 5.9999995,5.0000004 7.0000008,3.9999999 8.0000007,3 9.0000006,1.9999999 10.000001,0.99999999 11,0 Z m -1.999999,0 -2.0000003,1.9999999 -2.0000012,2 L 3.9999996,6.0000005 2.0000001,7.9999993 0,9.9999995 V 8.9999994 l 1.0000001,-1.0000001 1,-1.0000001 L 3,6.0000005 3.9999996,5.0000004 l 1,-1.0000005 L 5.9999995,3 7.0000008,1.9999999 8.0000007,0.99999999 9.0000006,0 Z m -2.0000003,0 -2.0000012,1.9999999 -1.9999999,2 L 2.0000001,6.0000005 0,7.9999993 V 6.9999992 l 1.0000001,-0.9999987 1,-1.0000001 L 3,3.9999999 3.9999996,3 l 1,-1.0000001 L 5.9999995,0.99999999 7.0000008,0 Z m -2.0000012,0 -1.9999999,1.9999999 -1.9999995,2 L 0,6.0000005 V 5.0000004 L 1.0000001,3.9999999 2.0000001,3 3,1.9999999 3.9999996,0.99999999 4.9999996,0 Z M 3.9999996,0 2.0000001,1.9999999 0,3.9999999 V 3 l 1.0000001,-1.0000001 1,-0.99999991 L 3,0 Z M 2.0000001,0 0,1.9999999 V 0.99999999 L 1.0000001,0 Z M 32,0.99999999 V 1.9999999 l -2,2 -2,2.0000006 -1.999999,1.9999988 -2,2.0000002 -2,2.0000005 -2,2 L 18,16 l -2,2 -1.999999,1.999999 -2.000001,2 -1.999999,2 -2.0000003,2 L 5.9999995,28 3.9999996,30 2.0000001,32 h -1 l 1,-1 L 3,30 l 0.9999996,-1 1,-1 0.9999999,-1 1.0000013,-1.000001 0.9999999,-1 0.9999999,-1 1.0000004,-1 0.999999,-1 1,-1 1,-1 L 14.000001,19 15,18 l 1,-1 1,-1 1,-1 1,-1 1.000001,-1 1,-1 1,-1 1,-1.0000005 1,-1.0000001 1,-1.0000001 1,-1.0000001 L 27,6.0000005 28,5.0000004 29,3.9999999 30,3 31,1.9999999 Z M 32,3 v 0.9999999 l -2,2.0000006 -2,1.9999988 -1.999999,2.0000002 -2,2.0000005 -2,2 -2,2 L 18,18 l -2,1.999999 -1.999999,2 -2.000001,2 -1.999999,2 L 8.0000007,28 5.9999995,30 3.9999996,32 H 3 l 0.9999996,-1 1,-1 0.9999999,-1 1.0000013,-1 0.9999999,-1 0.9999999,-1.000001 1.0000004,-1 0.999999,-1 1,-1 1,-1 1.000001,-1 0.999999,-1 L 16,19 l 1,-1 1,-1 1,-1 1.000001,-1 1,-1 1,-1 1,-1 1,-1 1,-1.0000005 1,-1.0000001 L 27,7.9999993 28,6.9999992 29,6.0000005 30,5.0000004 31,3.9999999 Z m 0,2.0000004 V 6.0000005 L 30,7.9999993 28,9.9999995 26.000001,12 l -2,2 -2,2 -2,2 L 18,19.999999 l -2,2 -1.999999,2 -2.000001,2 L 10.000001,28 8.0000007,30 5.9999995,32 H 4.9999996 L 5.9999995,31 7.0000008,30 8.0000007,29 9.0000006,28 10.000001,27 11,25.999999 l 1,-1 1,-1 1.000001,-1 0.999999,-1 1,-1 1,-1 L 18,19 l 1,-1 1.000001,-1 1,-1 1,-1 1,-1 1,-1 1,-1 1,-1 L 27,9.9999995 28,8.9999994 29,7.9999993 30,6.9999992 31,6.0000005 Z m 0,1.9999988 V 7.9999993 L 30,9.9999995 28,12 l -1.999999,2 -2,2 -2,2 -2,1.999999 -2.000001,2 -2,2 -1.999999,2 L 12,28 10.000001,30 8.0000007,32 H 7.0000008 L 8.0000007,31 9.0000006,30 10.000001,29 11,28 l 1,-1 1,-1.000001 1.000001,-1 0.999999,-1 1,-1 1,-1 1,-1 1,-1 L 20.000001,19 l 1,-1 1,-1 1,-1 1,-1 1,-1 1,-1 L 27,12 28,11 29,9.9999995 30,8.9999994 31,7.9999993 Z m 0,2.0000002 V 9.9999995 L 30,12 l -2,2 -1.999999,2 -2,2 -2,1.999999 -2,2 -2.000001,2 -2,2 L 14.000001,28 12,30 10.000001,32 H 9.0000006 L 10.000001,31 11,30 12,29 13,28 14.000001,27 15,25.999999 l 1,-1 1,-1 1,-1 1,-1 1.000001,-1 1,-1 1,-0.999999 1,-1 1,-1 1,-1 1,-1 L 27,14 l 1,-1 1,-1 1,-1 1,-1.0000005 z M 32,11 v 1 l -2,2 -2,2 -1.999999,2 -2,1.999999 -2,2 -2,2 -2.000001,2 L 16,28 14.000001,30 12,32 h -1 l 1,-1 1,-1 1.000001,-1 L 15,28 l 1,-1 1,-1.000001 1,-1 1,-1 1.000001,-1 1,-1 1,-1 1,-1 1,-0.999999 1,-1 1,-1 L 27,16 l 1,-1 1,-1 1,-1 1,-1 z m 0,2 v 1 l -2,2 -2,2 -1.999999,1.999999 -2,2 -2,2 -2,2 L 18,28 16,30 14.000001,32 H 13 L 14.000001,31 15,30 l 1,-1 1,-1 1,-1 1,-1.000001 1.000001,-1 1,-1 1,-1 1,-1 1,-1 1,-1 1,-0.999999 L 27,18 l 1,-1 1,-1 1,-1 1,-1 z m 0,2 v 1 l -2,2 -2,1.999999 -1.999999,2 -2,2 -2,2 -2,2.000001 L 18,30 16,32 h -1 l 1,-1 1,-1 1,-1 1,-1 1.000001,-1 1,-1.000001 1,-1 1,-1 1,-1 1,-1 1,-1 0.999999,-1 L 28,19 l 1,-1 1,-1 1,-1 z m 0,2 v 1 l -2,1.999999 -2,2 -1.999999,2 -2,2 -2,2.000001 -2,2 L 18,32 h -1 l 1,-1 1,-1 1.000001,-1 1,-1 1,-1 1,-1.000001 1,-1 1,-1 1,-1 0.999999,-1 1,-1 1,-1 L 30,19 31,18 Z m 0,2 v 0.999999 l -2,2 -2,2 -1.999999,2 -2,2.000001 -2,2 -2,2 H 19 l 1.000001,-1 1,-1 1,-1 1,-1 1,-1 1,-1.000001 1,-1 0.999999,-1 1,-1 1,-1 1,-1 1,-1 z m 0,1.999999 v 1 l -2,2 -2,2 L 26.000001,28 l -2,2 -2,2 h -1 l 1,-1 1,-1 1,-1 1,-1 1,-1 L 27,25.999999 l 1,-1 1,-1 1,-1 1,-1 z m 0,2 v 1 l -2,2 L 28,28 l -1.999999,2 -2,2 h -1 l 1,-1 1,-1 1,-1 L 27,28 l 1,-1 1,-1.000001 1,-1 1,-1 z m 0,2 v 1 L 30,28 l -2,2 -1.999999,2 h -1 l 1,-1 L 27,30 l 1,-1 1,-1 1,-1 1,-1.000001 z M 32,27 v 1 l -2,2 -2,2 h -1 l 1,-1 1,-1 1,-1 1,-1 z m 0,2 v 1 l -2,2 h -1 l 1,-1 1,-1 z m 0,2 v 1 h -1 z"/>
</svg>
