<?xml version="1.0" encoding="UTF-8" standalone="no"?>
<svg width="64" height="64" version="1.1" viewBox="0 0 32 32" xmlns="http://www.w3.org/2000/svg" xmlns:svg="http://www.w3.org/2000/svg">
  <path fill="red" d="M 0,0 1.999996,2 4,4 l 2,2 2,2 2,2 2,2 2,2 2,2 2,2 2,2 2,2 2,2 2,2 2,2 2,2 2,2 V 31 L 31,30 30,29 29,28 28,27 27,26 26,25 25,24 24,23 23,22 22,21 21,20 20,19 19,18 18,17 17,16 16,15 15,14 14,13 13,12 12,11 11,10 10,9 9,8 8,7 7,6 6,5 5,4 4,3 2.999996,2 l -1,-1 -1,-1 z M 1.999996,0 4,2 l 2,2 2,2 2,2 2,2 2,2 2,2 2,2 2,2 2,2 2,2 2,2 2,2 2,2 2,2 V 29 L 31,28 30,27 29,26 28,25 27,24 26,23 25,22 24,21 23,20 22,19 21,18 20,17 19,16 18,15 17,14 16,13 15,12 14,11 13,10 12,9 11,8 10,7 9,6 8,5 7,4 6,3 5,2 4,1 2.999996,0 Z M 4,0 l 2,2 2,2 2,2 2,2 2,2 2,2 2,2 2,2 2,2 2,2 2,2 2,2 2,2 2,2 V 27 L 31,26 30,25 29,24 28,23 27,22 26,21 25,20 24,19 23,18 22,17 21,16 20,15 19,14 18,13 17,12 16,11 15,10 14,9 13,8 12,7 11,6 10,5 9,4 8,3 7,2 6,1 5,0 Z m 2,0 2,2 2,2 2,2 2,2 2,2 2,2 2,2 2,2 2,2 2,2 2,2 2,2 2,2 V 25 L 31,24 30,23 29,22 28,21 27,20 26,19 25,18 24,17 23,16 22,15 21,14 20,13 19,12 18,11 17,10 16,9 15,8 14,7 13,6 12,5 11,4 10,3 9,2 8,1 7,0 Z m 2,0 2,2 2,2 2,2 2,2 2,2 2,2 2,2 2,2 2,2 2,2 2,2 2,2 V 23 L 31,22 30,21 29,20 28,19 27,18 26,17 25,16 24,15 23,14 22,13 21,12 20,11 19,10 18,9 17,8 16,7 15,6 14,5 13,4 12,3 11,2 10,1 9,0 Z m 2,0 2,2 2,2 2,2 2,2 2,2 2,2 2,2 2,2 2,2 2,2 2,2 V 21 L 31,20 30,19 29,18 28,17 27,16 26,15 25,14 24,13 23,12 22,11 21,10 20,9 19,8 18,7 17,6 16,5 15,4 14,3 13,2 12,1 11,0 Z m 2,0 2,2 2,2 2,2 2,2 2,2 2,2 2,2 2,2 2,2 2,2 V 19 L 31,18 30,17 29,16 28,15 27,14 26,13 25,12 24,11 23,10 22,9 21,8 20,7 19,6 18,5 17,4 16,3 15,2 14,1 13,0 Z m 2,0 2,2 2,2 2,2 2,2 2,2 2,2 2,2 2,2 2,2 V 17 L 31,16 30,15 29,14 28,13 27,12 26,11 25,10 24,9 23,8 22,7 21,6 20,5 19,4 18,3 17,2 16,1 15,0 Z m 2,0 2,2 2,2 2,2 2,2 2,2 2,2 2,2 2,2 V 15 L 31,14 30,13 29,12 28,11 27,10 26,9 25,8 24,7 23,6 22,5 21,4 20,3 19,2 18,1 17,0 Z m 2,0 2,2 2,2 2,2 2,2 2,2 2,2 2,2 V 13 L 31,12 30,11 29,10 28,9 27,8 26,7 25,6 24,5 23,4 22,3 21,2 20,1 19,0 Z m 2,0 2,2 2,2 2,2 2,2 2,2 2,2 V 11 L 31,10 30,9 29,8 28,7 27,6 26,5 25,4 24,3 23,2 22,1 21,0 Z m 2,0 2,2 2,2 2,2 2,2 2,2 V 9 L 31,8 30,7 29,6 28,5 27,4 26,3 25,2 24,1 23,0 Z m 2,0 2,2 2,2 2,2 2,2 V 7 L 31,6 30,5 29,4 28,3 27,2 26,1 25,0 Z m 2,0 2,2 2,2 2,2 V 5 L 31,4 30,3 29,2 28,1 27,0 Z m 2,0 2,2 2,2 V 3 L 31,2 30,1 29,0 Z m 2,0 2,2 V 1 L 31,0 Z M 0,1 V 2 L 1.999996,4 4,6 l 2,2 2,2 2,2 2,2 2,2 2,2 2,2 2,2 2,2 2,2 2,2 2,2 2,2 h 1 L 30,31 29,30 28,29 27,28 26,27 25,26 24,25 23,24 22,23 21,22 20,21 19,20 18,19 17,18 16,17 15,16 14,15 13,14 12,13 11,12 10,11 9,10 8,9 7,8 6,7 5,6 4,5 2.999996,4 l -1,-1 -1,-1 z M 0,3 V 4 L 1.999996,6 4,8 l 2,2 2,2 2,2 2,2 2,2 2,2 2,2 2,2 2,2 2,2 2,2 2,2 h 1 L 28,31 27,30 26,29 25,28 24,27 23,26 22,25 21,24 20,23 19,22 18,21 17,20 16,19 15,18 14,17 13,16 12,15 11,14 10,13 9,12 8,11 7,10 6,9 5,8 4,7 2.999996,6 l -1,-1 -1,-1 z M 0,5 V 6 L 1.999996,8 4,10 l 2,2 2,2 2,2 2,2 2,2 2,2 2,2 2,2 2,2 2,2 2,2 h 1 L 26,31 25,30 24,29 23,28 22,27 21,26 20,25 19,24 18,23 17,22 16,21 15,20 14,19 13,18 12,17 11,16 10,15 9,14 8,13 7,12 6,11 5,10 4,9 2.999996,8 l -1,-1 -1,-1 z M 0,7 V 8 L 1.999996,10 4,12 l 2,2 2,2 2,2 2,2 2,2 2,2 2,2 2,2 2,2 2,2 h 1 L 24,31 23,30 22,29 21,28 20,27 19,26 18,25 17,24 16,23 15,22 14,21 13,20 12,19 11,18 10,17 9,16 8,15 7,14 6,13 5,12 4,11 2.999996,10 l -1,-1 -1,-1 z m 0,2 v 1 L 1.999996,12 4,14 l 2,2 2,2 2,2 2,2 2,2 2,2 2,2 2,2 2,2 h 1 L 22,31 21,30 20,29 19,28 18,27 17,26 16,25 15,24 14,23 13,22 12,21 11,20 10,19 9,18 8,17 7,16 6,15 5,14 4,13 2.999996,12 l -1,-1 -1,-1 z m 0,2 v 1 L 1.999996,14 4,16 l 2,2 2,2 2,2 2,2 2,2 2,2 2,2 2,2 h 1 L 20,31 19,30 18,29 17,28 16,27 15,26 14,25 13,24 12,23 11,22 10,21 9,20 8,19 7,18 6,17 5,16 4,15 2.999996,14 l -1,-1 -1,-1 z m 0,2 v 1 L 1.999996,16 4,18 l 2,2 2,2 2,2 2,2 2,2 2,2 2,2 h 1 L 18,31 17,30 16,29 15,28 14,27 13,26 12,25 11,24 10,23 9,22 8,21 7,20 6,19 5,18 4,17 2.999996,16 l -1,-1 -1,-1 z m 0,2 v 1 L 1.999996,18 4,20 l 2,2 2,2 2,2 2,2 2,2 2,2 h 1 L 16,31 15,30 14,29 13,28 12,27 11,26 10,25 9,24 8,23 7,22 6,21 5,20 4,19 2.999996,18 l -1,-1 -1,-1 z m 0,2 v 1 L 1.999996,20 4,22 l 2,2 2,2 2,2 2,2 2,2 h 1 L 14,31 13,30 12,29 11,28 10,27 9,26 8,25 7,24 6,23 5,22 4,21 2.999996,20 l -1,-1 -1,-1 z m 0,2 v 1 L 1.999996,22 4,24 l 2,2 2,2 2,2 2,2 h 1 L 12,31 11,30 10,29 9,28 8,27 7,26 6,25 5,24 4,23 2.999996,22 l -1,-1 -1,-1 z m 0,2 v 1 L 1.999996,24 4,26 l 2,2 2,2 2,2 h 1 L 10,31 9,30 8,29 7,28 6,27 5,26 4,25 2.999996,24 l -1,-1 -1,-1 z m 0,2 v 1 L 1.999996,26 4,28 6,30 8,32 H 9 L 8,31 7,30 6,29 5,28 4,27 2.999996,26 l -1,-1 -1,-1 z m 0,2 v 1 L 1.999996,28 4,30 6,32 H 7 L 6,31 5,30 4,29 2.999996,28 l -1,-1 -1,-1 z m 0,2 v 1 L 1.999996,30 4,32 h 1 l -1,-1 -1.000004,-1 -1,-1 -1,-1 z m 0,2 v 1 l 1.999996,2 h 1 l -1,-1 -1,-1 z m 0,2 v 1 h 0.999996 z"/>
</svg>
