<?xml version="1.0" encoding="UTF-8"?>
<svg width="60" height="60" version="1.1" viewBox="0 0 30 30" xmlns="http://www.w3.org/2000/svg" xmlns:cc="http://creativecommons.org/ns#" xmlns:dc="http://purl.org/dc/elements/1.1/" xmlns:rdf="http://www.w3.org/1999/02/22-rdf-syntax-ns#">
 <g transform="translate(-31 -848.36)">
  <path fill="#008000ff" d="m46 848.36a14.999 14.999 0 0 0-15 15 14.999 14.999 0 0 0 15 15 14.999 14.999 0 0 0 15-15 14.999 14.999 0 0 0-15-15zm-1.8525 2.2797c0.61639-0.044 1.3063 0.063 1.982 0.2186-0.30571 0.1758-0.71936 0.4044-1.1155 0.6276 0.51374 0.1593 0.93584 0.5708 1.075 1.1297 0.21177 0.8503-0.30782 1.7096-1.158 1.9213-0.79561 0.1982-1.5948-0.2443-1.8687-0.9981l-0.41301 0.3199c-0.69907-0.9065-0.59804-1.8909-0.0486-2.5307 0.38649-0.45 0.93038-0.6442 1.5468-0.6883zm-4.0451 3.7474c0.32821 0.01 0.70153 0.035 1.1297 0.024l-3.0611 5.1262c-0.51025-0.6259-0.0267-2.302 0.0202-3.2089 0.35733-1.823 0.92656-1.9661 1.9112-1.9416zm2.7291 0.4292c0.55432-0.017 0.94345 0.3827 0.94345 0.3827l2.3525 2.2979 2.5692-0.6641c0.92477-0.2375 1.2244 1.0056 0.29963 1.2431l-2.9781 0.7653c-0.22247 0.062-0.49029 0.01-0.73694-0.2328l-1.3929-1.3585-1.5549 2.64 2.1643 0.5487c0.88132 0.1869 0.93738 0.9292 0.93738 0.9292l1.0811 4.4703c0.12241 0.5068-0.17458 1.0217-0.66609 1.1479-0.4915 0.1262-0.98704-0.1856-1.1095-0.6924l-0.86449-3.5794-3.7819-1.0488c-0.45111-0.1264-0.82334-0.4948-0.94344-0.992-0.0824-0.341-0.035-0.6872 0.1154-0.9758l2.4457-4.201c0.2916-0.5748 0.87259-0.6458 0.87259-0.6458 0.0853-0.022 0.1678-0.032 0.247-0.034zm8.8696 4.3974a3.6276 3.6285 0 0 1 3.628 3.628 3.6276 3.6285 0 0 1-3.628 3.628 3.6276 3.6285 0 0 1-3.628-3.628 3.6276 3.6285 0 0 1 3.628-3.628zm0 1.1338a2.4943 2.4949 0 0 0-2.4943 2.4942 2.4943 2.4949 0 0 0 2.4943 2.4963 2.4943 2.4949 0 0 0 2.4943-2.4963 2.4943 2.4949 0 0 0-2.4943-2.4942zm6.8977 2.2108a0.59175 0.59175 0 0 1 0.41301 1.0224c-1.7091 1.6552-2.6651 2.8459-4.8468 4.7861-1.1811 1.0504-2.6151 1.0651-3.8163 1.0264-1.2012-0.039-2.173-0.085-2.8243 0.409-1.7839 1.3544-3.9966 3.7594-5.9401 5.5756a0.59175 0.59175 0 1 1-0.8078-0.8645c1.8878-1.7642 4.0923-4.181 6.0332-5.6546 1.0934-0.8301 2.416-0.6852 3.5774-0.6478 1.1614 0.037 2.1574 0.014 2.9923-0.7289 2.1302-1.8943 3.0568-3.0534 4.8104-4.7516a0.59175 0.59175 0 0 1 0.40896-0.1721zm-18.3 1.8383a3.6276 3.6285 0 0 1 3.628 3.628 3.6276 3.6285 0 0 1-3.628 3.628 3.6276 3.6285 0 0 1-3.628-3.628 3.6276 3.6285 0 0 1 3.628-3.628zm0 1.1337a2.4943 2.4949 0 0 0-2.4943 2.4943 2.4943 2.4949 0 0 0 2.4943 2.4963 2.4943 2.4949 0 0 0 2.4943-2.4963 2.4943 2.4949 0 0 0-2.4943-2.4943z"/>
 </g>
</svg>
