<?xml version="1.0" encoding="UTF-8" standalone="no"?>
<svg
   width="32"
   height="32"
   viewBox="0 0 16 16"
   version="1.1"
   xmlns="http://www.w3.org/2000/svg"
   xmlns:svg="http://www.w3.org/2000/svg">
   <g transform="translate(0 0)">
      <path fill="#1e80e3ff" d="M 12.438866,1 C 11.965113,1 11.491313,1.1221211 11.060163,1.3676104 10.197864,1.8585902 9.4776535,2.7285248 8.7883721,3.9059234 8.2074848,4.8981681 7.657527,5.4746622 7.2496571,5.706897 c -0.4078693,0.2322342 -0.645229,0.2322342 -1.0530984,0 -0.8622988,-0.49098 -1.8951079,-0.49098 -2.7574067,0 -0.8622989,0.4909793 -1.5825093,1.3609142 -2.2717907,2.5383127 -0.088143,0.1505684 -0.65010803,4.4033493 0.9461143,6.5724933 0.4377517,0.332316 1.0291849,0.197615 1.3210248,-0.300869 0.5808871,-0.992243 1.1308459,-1.568738 1.5387147,-1.800971 0.4078699,-0.232236 0.6452295,-0.232236 1.0530989,0 0.8622987,0.490977 1.8951077,0.490977 2.7574064,0 0.8622997,-0.49098 1.5825096,-1.360916 2.2717916,-2.538315 0.580886,-0.9922443 1.130844,-1.5687386 1.538713,-1.8009729 0.40787,-0.2322348 0.64523,-0.2322348 1.053099,0 0.470627,0.2680459 1.042959,0.050797 1.278233,-0.4852038 C 15.250479,5.7072968 14.443846,1.7240999 13.817569,1.3676104 13.386418,1.1221206 12.912617,1 12.438866,1 Z"/>
   </g>
</svg>
