<?xml version="1.0" encoding="UTF-8"?>
<svg width="26" height="21" version="1.1" viewBox="0 0 15 12" xmlns="http://www.w3.org/2000/svg" xmlns:cc="http://creativecommons.org/ns#" xmlns:dc="http://purl.org/dc/elements/1.1/" xmlns:rdf="http://www.w3.org/1999/02/22-rdf-syntax-ns#">
 <g transform="translate(-61.001 -93)">
  <path fill="#734a08ff" d="m61.451 93c-0.55577 0.0116-0.6594 0.99192 0.04492 1h2.5l3 8h7l2-6h-10l-0.98242-2.5547c-0.08147-0.24603-0.31733-0.4367-0.58008-0.44141-0.95492-5e-5 -2.2797-0.003906-2.9824-0.003906zm6.5449 10a1 1 0 0 0-1 1 1 1 0 0 0 1 1 1 1 0 0 0 1-1 1 1 0 0 0-1-1zm5 0a1 1 0 0 0-1 1 1 1 0 0 0 1 1 1 1 0 0 0 1-1 1 1 0 0 0-1-1z"/>
 </g>
</svg>
