<?xml version="1.0" encoding="UTF-8"?>
<svg width="60" height="60" version="1.1" viewBox="0 0 15 15" xmlns="http://www.w3.org/2000/svg" xmlns:cc="http://creativecommons.org/ns#" xmlns:dc="http://purl.org/dc/elements/1.1/" xmlns:rdf="http://www.w3.org/1999/02/22-rdf-syntax-ns#">
 <rect width="15" height="15" fill="#ecececff"/>
 <g transform="translate(-146 -227.5)">
  <path fill="#ecececff" stroke="#ccccccff" stroke-width="0.5" d="m158.75 227.5c-0.58606 0-1.118 0.1166-1.5254 0.32031s-0.72461 0.51844-0.72461 0.92969 0.31719 0.72793 0.72461 0.93164 0.93933 0.31836 1.5254 0.31836 1.118-0.11465 1.5254-0.31836 0.72461-0.52039 0.72461-0.93164-0.31719-0.72598-0.72461-0.92969-0.93933-0.32031-1.5254-0.32031zm-9 0.5c-0.58606 0-1.118 0.1166-1.5254 0.32031s-0.72461 0.51844-0.72461 0.92969 0.31719 0.72793 0.72461 0.93164 0.93933 0.31836 1.5254 0.31836 1.118-0.11465 1.5254-0.31836 0.72461-0.52039 0.72461-0.93164-0.31719-0.72598-0.72461-0.92969-0.93933-0.32031-1.5254-0.32031zm5.5 2.5c-0.58606 0-1.118 0.1166-1.5254 0.32031s-0.72461 0.51844-0.72461 0.92969 0.31719 0.72793 0.72461 0.93164 0.93933 0.31836 1.5254 0.31836 1.118-0.11465 1.5254-0.31836 0.72461-0.52039 0.72461-0.93164-0.31719-0.72598-0.72461-0.92969-0.93933-0.32031-1.5254-0.32031zm-5.5 2.5c-0.58606 0-1.118 0.1166-1.5254 0.32031s-0.72461 0.51844-0.72461 0.92969 0.31719 0.72793 0.72461 0.93164 0.93933 0.31836 1.5254 0.31836 1.118-0.11465 1.5254-0.31836 0.72461-0.52039 0.72461-0.93164-0.31719-0.72598-0.72461-0.92969-0.93933-0.32031-1.5254-0.32031zm8.5 1c-0.58606 0-1.118 0.1166-1.5254 0.32031s-0.72461 0.51844-0.72461 0.92969 0.31719 0.72793 0.72461 0.93164 0.93933 0.31836 1.5254 0.31836 1.118-0.11465 1.5254-0.31836 0.72461-0.52039 0.72461-0.93164-0.31719-0.72598-0.72461-0.92969-0.93933-0.32031-1.5254-0.32031zm-3.5 3c-0.58606 0-1.118 0.1166-1.5254 0.32031s-0.72461 0.51844-0.72461 0.92969 0.31719 0.72793 0.72461 0.93164 0.93933 0.31836 1.5254 0.31836 1.118-0.11465 1.5254-0.31836 0.72461-0.52039 0.72461-0.93164-0.31719-0.72598-0.72461-0.92969-0.93933-0.32031-1.5254-0.32031zm-6.5 2c-0.58606 0-1.118 0.1166-1.5254 0.32031s-0.72461 0.51844-0.72461 0.92969 0.31719 0.72793 0.72461 0.93164 0.93933 0.31836 1.5254 0.31836 1.118-0.11465 1.5254-0.31836 0.72461-0.52039 0.72461-0.93164-0.31719-0.72598-0.72461-0.92969-0.93933-0.32031-1.5254-0.32031zm10.5 1c-0.58606 0-1.118 0.1166-1.5254 0.32031s-0.72461 0.51844-0.72461 0.92969 0.31719 0.72793 0.72461 0.93164 0.93933 0.31836 1.5254 0.31836 1.118-0.11465 1.5254-0.31836 0.72461-0.52039 0.72461-0.93164-0.31719-0.72598-0.72461-0.92969-0.93933-0.32031-1.5254-0.32031z"/>
 </g>
</svg>
