<?xml version="1.0" encoding="UTF-8"?>
<svg width="22" height="26" version="1.1" viewBox="0 0 13 15" xmlns="http://www.w3.org/2000/svg" xmlns:cc="http://creativecommons.org/ns#" xmlns:dc="http://purl.org/dc/elements/1.1/" xmlns:rdf="http://www.w3.org/1999/02/22-rdf-syntax-ns#">
 <g transform="translate(-32 -668.36)">
  <path d="m38.5 668.36-2.3633 4h-4.1367l2.0684 3.5-2.0684 3.5h4.1367l2.3633 4 2.3633-4h4.1367l-2.0684-3.5 2.0684-3.5h-4.1367zm0 2 1.1875 2h-2.375zm-4.75 3h1.7949l-0.89453 1.5156zm2.9688 0h3.5625l1.4844 2.5-1.4844 2.5h-3.5625l-1.4844-2.5zm4.7363 0h1.7949l-0.90039 1.5156zm-6.8047 3.4844 0.89453 1.5156h-1.7949zm7.6992 0 0.90039 1.5156h-1.7949zm-5.0371 2.5156h2.375l-1.1875 2z"/>
 </g>
</svg>
