<?xml version="1.0" encoding="UTF-8"?>
<svg width="26" height="26" version="1.1" viewBox="0 0 15 15" xmlns="http://www.w3.org/2000/svg" xmlns:cc="http://creativecommons.org/ns#" xmlns:dc="http://purl.org/dc/elements/1.1/" xmlns:rdf="http://www.w3.org/1999/02/22-rdf-syntax-ns#">
 <g transform="translate(-1 -788.36)">
  <path fill="#734a08ff" d="m4.5 788.36a1.5 1.5 0 0 0-1.5 1.5 1.5 1.5 0 0 0 1.5 1.5 1.5 1.5 0 0 0 1.5-1.5 1.5 1.5 0 0 0-1.5-1.5zm8 0a1.5 1.5 0 0 0-1.5 1.5 1.5 1.5 0 0 0 1.5 1.5 1.5 1.5 0 0 0 1.5-1.5 1.5 1.5 0 0 0-1.5-1.5zm-9.5 4-2 8h2v3h3v-3h2l-2-8zm6 0 2 5v6h3v-6l2-5h-5z"/>
 </g>
</svg>
