<?xml version="1.0" encoding="UTF-8"?>
<svg width="19" height="26" version="1.1" viewBox="0 0 11 15" xmlns="http://www.w3.org/2000/svg" xmlns:cc="http://creativecommons.org/ns#" xmlns:dc="http://purl.org/dc/elements/1.1/" xmlns:rdf="http://www.w3.org/1999/02/22-rdf-syntax-ns#">
 <g transform="translate(-63 -818.36)">
  <path fill="#008000ff" d="m68.361 818.36c-0.98428-0.0171-2.0204 0.54518-2.2297 1.6973-0.0886 0.48779-0.16274 0.64467-0.7221 0.65468-1.7232 0.0309-2.4561 2.6457-1.0002 3.878 0.14426 0.1221 0.0612 0.22819-0.42447 0.60957-2.4715 1.9401 0.1897 5.8115 2.7176 3.9535 0.3701-0.272 0.42879-0.2751 0.5123-0.05 0.17627 0.4742 0.0979 2.7511-0.12197 3.5054l-0.21956 0.7504h1.3222c0.1309 0 0.19637 5e-4 0.30251 0 0.10744 5e-4 0.17436 0 0.30737 0h1.3222l-0.21467-0.7504c-0.21992-0.7543-0.30315-3.0312-0.12687-3.5054 0.0835-0.2247 0.1422-0.2216 0.5123 0.05 2.5279 1.858 5.1892-2.0134 2.7177-3.9535-0.48564-0.38138-0.5938-0.54047-0.41962-0.60957 1.4558-0.57668 0.67577-3.5848-1.0051-3.878-0.55163-0.096-0.62856-0.1669-0.71722-0.65468-0.21931-1.2068-1.3476-1.7623-2.3712-1.6872-0.0467 0-0.0946-0.011-0.14148-0.011z"/>
 </g>
</svg>
