<?xml version="1.0" encoding="UTF-8"?>
<svg width="25" height="26" version="1.1" viewBox="0 0 14.5 15" xmlns="http://www.w3.org/2000/svg" xmlns:cc="http://creativecommons.org/ns#" xmlns:dc="http://purl.org/dc/elements/1.1/" xmlns:rdf="http://www.w3.org/1999/02/22-rdf-syntax-ns#">
 <g transform="translate(-91.266 -818.36)">
  <path fill="#008000ff" d="m97 818.36 1.2031 6.0293a1.5 1.5025 0 0 1 0.29688-0.0312 1.5 1.5025 0 0 1 0.29688 0.0293l1.2031-6.0273zm-4.2344 2.4492-1.5 2.6016 5.8145 1.9688a1.5 1.5025 0 0 1 0.29687-0.51367zm11.469 0-4.6113 4.0586a1.5 1.5025 0 0 1 0.29687 0.51367l5.8145-1.9707zm-4.3145 5.5293a1.5 1.5025 0 0 1-0.29687 0.5156l4.6113 4.0567 1.5-2.6016zm-2.8398 0-5.8145 1.9688 1.5 2.6015 4.6113-4.0586a1.5 1.5025 0 0 1-0.29687-0.5117zm1.7168 0.9903a1.5 1.5025 0 0 1-0.29688 0.031 1.5 1.5025 0 0 1-0.29688-0.029l-1.2031 6.0273h3z"/>
 </g>
 </svg>
