<?xml version="1.0" encoding="UTF-8"?>
<svg width="64" height="64" version="1.1" viewBox="0 0 16 16" xmlns="http://www.w3.org/2000/svg" xmlns:cc="http://creativecommons.org/ns#" xmlns:dc="http://purl.org/dc/elements/1.1/" xmlns:rdf="http://www.w3.org/1999/02/22-rdf-syntax-ns#">
 <rect width="16" height="16" fill="#dde9afff"/>
 <g transform="translate(-17 -227)">
  <path fill="#abc837ff" d="m20.248 227c-0.21535 6e-5 -0.43222 0.0554-0.625 0.16602-0.15312 0.0885-0.27398 0.21285-0.375 0.35156-0.10171-0.13815-0.22362-0.26171-0.37695-0.34961-0.38676-0.2217-0.86248-0.22121-1.248 0-0.38557 0.22264-0.62425 0.63553-0.62305 1.082h0.49219c-5e-4 -0.26844 0.14217-0.5149 0.37695-0.65039 0.23478-0.13556 0.52426-0.13586 0.75976 0 0.21872 0.12535 0.35188 0.34765 0.37109 0.59375v1.3066h0.5v-1.3125c0.0198-0.2438 0.15286-0.46699 0.36914-0.5918 0.23478-0.13554 0.52426-0.13584 0.75976 0 0.23552 0.135 0.38014 0.3839 0.38086 0.65235h0.49023c-9.99e-4 -0.44646-0.24214-0.86028-0.62891-1.082-0.19338-0.11085-0.4077-0.16417-0.62305-0.16407zm8 0c-0.21535 6e-5 -0.43222 0.0554-0.625 0.16602-0.15312 0.0885-0.27398 0.21285-0.375 0.35156-0.10171-0.13815-0.22362-0.26171-0.37695-0.34961-0.38676-0.2217-0.86248-0.22121-1.248 0-0.38557 0.22264-0.62425 0.63553-0.62305 1.082h0.49219c-5e-4 -0.26844 0.14217-0.5149 0.37695-0.65039 0.23478-0.13556 0.52426-0.13586 0.75976 0 0.21872 0.12535 0.35188 0.34765 0.37109 0.59375v1.3066h0.5v-1.3125c0.0198-0.2438 0.15286-0.46699 0.36914-0.5918 0.23478-0.13554 0.52426-0.13584 0.75976 0 0.23552 0.135 0.38014 0.3839 0.38086 0.65235h0.49023c-1e-3 -0.44646-0.24214-0.86028-0.62891-1.082-0.19338-0.11085-0.4077-0.16417-0.62305-0.16407zm-4.5 8c-0.21535 6e-5 -0.43221 0.0554-0.625 0.16602-0.15312 0.0885-0.27398 0.21285-0.375 0.35156-0.10171-0.13815-0.22362-0.26171-0.37695-0.34961-0.38676-0.2217-0.86248-0.22121-1.248 0-0.38557 0.22264-0.62425 0.63553-0.62305 1.082h0.49219c-5e-4 -0.26844 0.14217-0.5149 0.37695-0.65039 0.23478-0.13556 0.52426-0.13586 0.75976 0 0.21872 0.12535 0.35188 0.34765 0.37109 0.59375v1.3066h0.5v-1.3125c0.0198-0.2438 0.15286-0.46699 0.36914-0.5918 0.23478-0.13554 0.52426-0.13584 0.75976 0 0.23552 0.135 0.38014 0.3839 0.38086 0.65235h0.49023c-9.99e-4 -0.44646-0.24214-0.86028-0.62891-1.082-0.19338-0.11085-0.4077-0.16417-0.62305-0.16407zm8 0c-0.21535 6e-5 -0.43222 0.0554-0.625 0.16602-0.15312 0.0885-0.27398 0.21285-0.375 0.35156-0.10171-0.13815-0.22362-0.26171-0.37695-0.34961-0.38676-0.2217-0.86248-0.22121-1.248 0-0.38557 0.22264-0.62425 0.63553-0.62305 1.082h0.49219c-5.01e-4 -0.26844 0.14217-0.5149 0.37695-0.65039 0.23478-0.13556 0.52426-0.13586 0.75976 0 0.21872 0.12535 0.35188 0.34765 0.37109 0.59375v1.3066h0.5v-1.3125c0.0198-0.2438 0.15286-0.46699 0.36914-0.5918 0.23478-0.13554 0.52426-0.13584 0.75976 0 0.23552 0.135 0.38014 0.3839 0.38086 0.65235h0.49023c-9.99e-4 -0.44646-0.24214-0.86028-0.62891-1.082-0.19338-0.11085-0.4077-0.16417-0.62305-0.16407z"/>
 </g>
</svg>
