<?xml version="1.0" encoding="UTF-8"?>
<svg width="20" height="12" version="1.1" viewBox="0 0 10 6" xmlns="http://www.w3.org/2000/svg" xmlns:cc="http://creativecommons.org/ns#" xmlns:dc="http://purl.org/dc/elements/1.1/" xmlns:rdf="http://www.w3.org/1999/02/22-rdf-syntax-ns#">
 <g transform="translate(-153 -793.36)">
  <path fill="#1e80e3" d="m153.67 793.36c-0.40828-0.0143-0.65423 0.39852-0.67276 0.83314-0.0206 1.9771 1.1765 3.8753 2.8996 4.684 0.65241 0.32508 1.3707 0.48305 2.0895 0.48248 1.1428-8.5e-4 2.2867-0.40268 3.1688-1.1709 1.1329-0.95918 1.8249-2.4539 1.841-3.9752 0.0229-0.47119-0.46004-1.0358-0.93536-0.79731-0.44973 0.18382-0.42941 0.71428-0.44899 1.1181-0.15319 1.6395-1.4068 3.4045-3.5574 3.4076-2.2724-0.0437-3.6646-1.764-3.6903-3.8044 0.0165-0.38179-0.2833-0.79113-0.69413-0.77746z"/>
 </g>
</svg>
