<?xml version="1.0" encoding="UTF-8"?>
<svg width="20" height="20" version="1.1" viewBox="0 0 10 10" xmlns="http://www.w3.org/2000/svg" xmlns:cc="http://creativecommons.org/ns#" xmlns:dc="http://purl.org/dc/elements/1.1/" xmlns:rdf="http://www.w3.org/1999/02/22-rdf-syntax-ns#">
 <g transform="translate(-93 -123)">
  <path fill="#1e80e3" d="m98 123a5 5 0 0 0-5 5 5 5 0 0 0 5 5 5 5 0 0 0 5-5 5 5 0 0 0-5-5zm0 1.334a3.6667 3.6667 0 0 1 3.666 3.666 3.6667 3.6667 0 0 1-3.666 3.666 3.6667 3.6667 0 0 1-3.666-3.666 3.6667 3.6667 0 0 1 3.666-3.666zm0 2.3027a1.3636 1.3636 0 0 0-1.3633 1.3633 1.3636 1.3636 0 0 0 1.3633 1.3633 1.3636 1.3636 0 0 0 1.3633-1.3633 1.3636 1.3636 0 0 0-1.3633-1.3633z"/>
 </g>
 </svg>
